<?xml version="1.0" encoding="utf-8"?>
<!-- Generator: Adobe Illustrator 22.1.0, SVG Export Plug-In . SVG Version: 6.00 Build 0)  -->
<svg version="1.2" baseProfile="tiny" id="Calque_1"
	 xmlns="//www.w3.org/2000/svg" xmlns:xlink="//www.w3.org/1999/xlink" x="0px" y="0px" viewBox="0 0 400 145"
	 xml:space="preserve">
<g>
	<path fill="#782C38" d="M51.7,19.2v10.1h1c1.6,0,2.8-0.1,3.5-0.4c0.8-0.3,1.4-0.8,1.9-1.6c0.5-0.8,0.7-1.7,0.7-3
		c0-1.8-0.4-3.1-1.2-3.9c-0.8-0.8-2.2-1.3-4-1.3H51.7z M51.7,30.5V37c0,1.3,0.1,2,0.2,2.4c0.2,0.3,0.4,0.6,0.8,0.8
		c0.4,0.2,1.1,0.3,2.2,0.3V41H43.1v-0.6c1.1,0,1.8-0.1,2.2-0.3c0.4-0.2,0.7-0.5,0.8-0.8c0.2-0.3,0.2-1.1,0.2-2.4V22
		c0-1.3-0.1-2-0.2-2.4c-0.2-0.3-0.4-0.6-0.8-0.8c-0.4-0.2-1.1-0.3-2.2-0.3v-0.6h10.7c2.8,0,4.8,0.2,6.1,0.6c1.3,0.4,2.4,1.1,3.2,2.1
		c0.8,1,1.2,2.3,1.2,3.7c0,1.7-0.6,3.1-1.8,4.2c-0.8,0.7-1.9,1.2-3.3,1.6l5.6,7.8c0.7,1,1.2,1.6,1.5,1.9c0.5,0.4,1,0.5,1.6,0.6V41
		h-7.3l-7.5-10.5H51.7z"/>
	<path fill="#782C38" d="M77.2,19.2v9.4h0.5c1.5,0,2.5-0.5,3.2-1.4c0.7-0.9,1.1-2.3,1.3-4.1h0.6v12.1h-0.6c-0.1-1.3-0.4-2.4-0.9-3.2
		c-0.4-0.8-0.9-1.4-1.5-1.7c-0.6-0.3-1.4-0.4-2.5-0.4v6.5c0,1.3,0.1,2.1,0.2,2.3c0.1,0.3,0.3,0.5,0.6,0.7c0.3,0.2,0.8,0.3,1.4,0.3
		h1.4c2.2,0,3.9-0.5,5.2-1.5c1.3-1,2.2-2.5,2.8-4.6h0.6l-1,7.4h-20v-0.6h0.8c0.7,0,1.2-0.1,1.6-0.4c0.3-0.2,0.5-0.4,0.7-0.8
		c0.1-0.3,0.2-1,0.2-2.2V21.9c0-1,0-1.7-0.1-1.9c-0.1-0.4-0.3-0.7-0.6-0.9c-0.4-0.3-1-0.5-1.8-0.5h-0.8v-0.6h19.4v6.8h-0.6
		c-0.3-1.7-0.8-2.9-1.4-3.6c-0.6-0.7-1.4-1.3-2.5-1.6c-0.6-0.2-1.8-0.3-3.6-0.3H77.2z"/>
	<path fill="#782C38" d="M107.4,17.4l0.2,7.7h-0.7c-0.3-1.9-1.1-3.5-2.4-4.7c-1.3-1.2-2.7-1.8-4.2-1.8c-1.2,0-2.1,0.3-2.8,0.9
		c-0.7,0.6-1,1.3-1,2.1c0,0.5,0.1,1,0.4,1.4c0.3,0.5,0.9,1.1,1.6,1.6c0.5,0.4,1.8,1,3.7,2c2.7,1.3,4.5,2.6,5.5,3.8
		c0.9,1.2,1.4,2.5,1.4,4.1c0,1.9-0.8,3.6-2.3,5c-1.5,1.4-3.4,2.1-5.7,2.1c-0.7,0-1.4-0.1-2.1-0.2c-0.7-0.1-1.5-0.4-2.4-0.8
		c-0.5-0.2-1-0.3-1.3-0.3c-0.3,0-0.6,0.1-0.9,0.3c-0.3,0.2-0.6,0.6-0.8,1h-0.6v-8.7h0.6c0.5,2.5,1.5,4.3,2.9,5.6
		c1.4,1.3,3,1.9,4.6,1.9c1.3,0,2.3-0.3,3-1c0.8-0.7,1.1-1.5,1.1-2.4c0-0.5-0.1-1.1-0.4-1.6c-0.3-0.5-0.7-1-1.3-1.5
		c-0.6-0.5-1.6-1.1-3.1-1.8c-2.1-1-3.6-1.9-4.5-2.6c-0.9-0.7-1.6-1.5-2.1-2.4c-0.5-0.9-0.7-1.9-0.7-3c0-1.8,0.7-3.4,2-4.7
		c1.4-1.3,3.1-1.9,5.1-1.9c0.8,0,1.5,0.1,2.2,0.3c0.5,0.1,1.2,0.4,2,0.8c0.8,0.4,1.3,0.6,1.6,0.6c0.3,0,0.5-0.1,0.7-0.3
		c0.2-0.2,0.3-0.6,0.5-1.3H107.4z"/>
	<path fill="#782C38" d="M132.5,17.9v6.3h-0.6c-0.4-1.4-0.8-2.5-1.2-3.1c-0.4-0.6-1-1.1-1.8-1.5c-0.4-0.2-1.2-0.3-2.3-0.3h-1.7v17.8
		c0,1.2,0.1,1.9,0.2,2.2c0.1,0.3,0.4,0.6,0.8,0.8c0.4,0.2,0.9,0.3,1.6,0.3h0.8V41H116v-0.6h0.8c0.7,0,1.2-0.1,1.6-0.4
		c0.3-0.2,0.5-0.4,0.7-0.8c0.1-0.3,0.2-1,0.2-2.2V19.2h-1.7c-1.6,0-2.7,0.3-3.4,1c-1,0.9-1.6,2.2-1.9,3.9h-0.6v-6.3H132.5z"/>
	<path fill="#782C38" d="M145.1,33.2l-3.4-8l-3.5,8H145.1z M145.7,34.5h-8.2l-1,2.3c-0.3,0.7-0.5,1.4-0.5,1.9c0,0.6,0.3,1.1,0.8,1.4
		c0.3,0.2,1.1,0.3,2.3,0.4V41h-7.7v-0.6c0.8-0.1,1.5-0.5,2-1c0.5-0.6,1.2-1.7,2-3.5l8.3-18.5h0.3l8.3,19c0.8,1.8,1.5,2.9,2,3.4
		c0.4,0.4,0.9,0.6,1.6,0.6V41h-11.2v-0.6h0.5c0.9,0,1.5-0.1,1.9-0.4c0.3-0.2,0.4-0.4,0.4-0.8c0-0.2,0-0.4-0.1-0.6
		c0-0.1-0.2-0.5-0.5-1.3L145.7,34.5z"/>
	<path fill="#782C38" d="M157.2,17.9h11.9v0.6h-0.6c-0.9,0-1.5,0.1-1.9,0.3c-0.3,0.2-0.6,0.4-0.7,0.8c-0.1,0.3-0.2,1.2-0.2,2.5v11.3
		c0,2.1,0.2,3.4,0.5,4.1c0.3,0.7,0.8,1.2,1.5,1.7c0.7,0.4,1.6,0.7,2.7,0.7c1.2,0,2.3-0.3,3.2-0.8c0.9-0.6,1.5-1.3,2-2.3
		c0.4-1,0.7-2.7,0.7-5.2v-9.4c0-1-0.1-1.8-0.3-2.2c-0.2-0.4-0.5-0.7-0.8-0.9c-0.5-0.3-1.2-0.4-2.2-0.4v-0.6h8v0.6h-0.5
		c-0.6,0-1.2,0.1-1.6,0.4c-0.4,0.3-0.7,0.7-0.9,1.2c-0.1,0.4-0.2,1-0.2,2v8.8c0,2.7-0.2,4.7-0.5,5.9c-0.4,1.2-1.2,2.3-2.6,3.3
		c-1.4,1-3.3,1.5-5.7,1.5c-2,0-3.6-0.3-4.6-0.8c-1.5-0.7-2.5-1.7-3.2-2.8c-0.6-1.1-0.9-2.7-0.9-4.6V22.1c0-1.3-0.1-2.2-0.2-2.5
		c-0.1-0.3-0.4-0.6-0.8-0.8c-0.4-0.2-1-0.3-2-0.3V17.9z"/>
	<path fill="#782C38" d="M190.9,19.2v10.1h1c1.6,0,2.8-0.1,3.6-0.4c0.8-0.3,1.4-0.8,1.9-1.6c0.4-0.8,0.7-1.7,0.7-3
		c0-1.8-0.4-3.1-1.2-3.9c-0.8-0.8-2.2-1.3-4-1.3H190.9z M190.9,30.5V37c0,1.3,0.1,2,0.2,2.4c0.2,0.3,0.4,0.6,0.8,0.8
		c0.4,0.2,1.1,0.3,2.2,0.3V41h-11.8v-0.6c1.1,0,1.8-0.1,2.2-0.3c0.4-0.2,0.6-0.5,0.8-0.8c0.2-0.3,0.2-1.1,0.2-2.4V22
		c0-1.3-0.1-2-0.2-2.4c-0.2-0.3-0.4-0.6-0.8-0.8c-0.4-0.2-1.1-0.3-2.2-0.3v-0.6H193c2.8,0,4.8,0.2,6.1,0.6c1.3,0.4,2.4,1.1,3.2,2.1
		c0.8,1,1.2,2.3,1.2,3.7c0,1.7-0.6,3.1-1.8,4.2c-0.8,0.7-1.9,1.2-3.3,1.6l5.6,7.8c0.7,1,1.2,1.6,1.6,1.9c0.5,0.4,1,0.5,1.6,0.6V41
		h-7.3l-7.5-10.5H190.9z"/>
	<path fill="#782C38" d="M220.8,33.2l-3.4-8l-3.6,8H220.8z M221.4,34.5h-8.2l-1,2.3c-0.3,0.7-0.5,1.4-0.5,1.9c0,0.6,0.3,1.1,0.8,1.4
		c0.3,0.2,1.1,0.3,2.3,0.4V41h-7.7v-0.6c0.8-0.1,1.5-0.5,2-1c0.5-0.6,1.2-1.7,2-3.5l8.3-18.5h0.3l8.3,19c0.8,1.8,1.5,2.9,2,3.4
		c0.4,0.4,0.9,0.6,1.6,0.6V41h-11.2v-0.6h0.5c0.9,0,1.5-0.1,1.9-0.4c0.3-0.2,0.4-0.4,0.4-0.8c0-0.2,0-0.4-0.1-0.6
		c0-0.1-0.2-0.5-0.5-1.3L221.4,34.5z"/>
	<path fill="#782C38" d="M240.8,17.9l11.4,14.3v-9.9c0-1.4-0.2-2.3-0.6-2.8c-0.5-0.7-1.5-1-2.7-1v-0.6h7.6v0.6c-1,0.1-1.6,0.3-2,0.5
		c-0.3,0.2-0.6,0.5-0.8,1c-0.2,0.4-0.3,1.2-0.3,2.3v19.3h-0.6l-15.6-19.3V37c0,1.3,0.3,2.2,0.9,2.7c0.6,0.5,1.3,0.7,2.1,0.7h0.5V41
		h-8.2v-0.6c1.3,0,2.2-0.3,2.7-0.8c0.5-0.5,0.8-1.4,0.8-2.6V20.7l-0.5-0.6c-0.5-0.6-0.9-1-1.3-1.2c-0.4-0.2-0.9-0.3-1.6-0.3v-0.6
		H240.8z"/>
	<path fill="#782C38" d="M279.4,17.9v6.3h-0.6c-0.4-1.4-0.8-2.5-1.2-3.1c-0.4-0.6-1.1-1.1-1.8-1.5c-0.4-0.2-1.2-0.3-2.3-0.3h-1.7
		v17.8c0,1.2,0.1,1.9,0.2,2.2c0.1,0.3,0.4,0.6,0.8,0.8c0.4,0.2,0.9,0.3,1.6,0.3h0.8V41h-12.1v-0.6h0.8c0.7,0,1.2-0.1,1.6-0.4
		c0.3-0.2,0.5-0.4,0.7-0.8c0.1-0.3,0.2-1,0.2-2.2V19.2h-1.7c-1.6,0-2.7,0.3-3.4,1c-1,0.9-1.6,2.2-1.9,3.9h-0.7v-6.3H279.4z"/>
	<path fill="#782C38" d="M28.6,28.7c1.7,3.4,2.9,6.8,3.6,10c0.7,3.2,1,6.1,1,8.6L33.1,105c-0.1,0-0.5-0.2-1.2-0.5
		c-0.7-0.4-1.5-0.8-2.4-1.2c-0.9-0.5-1.8-0.9-2.8-1.4c-1-0.5-1.5-0.7-1.6-0.7l0.1-53.7c-0.1-3.7-0.8-7.2-1.9-10.5
		c-1.1-3.3-2.4-6-3.8-8.1c-1.4-2.2-2.9-4.1-4.5-6c-1.6-1.8-2.6-2.9-3-3.3l10,0C24.7,22.2,26.9,25.3,28.6,28.7"/>
	<path fill="#782C38" d="M365.3,35.3c-0.1-0.2-0.4-0.9-0.7-2.2c-0.3-1.3-1-2.7-2-4.4v-1.1l1.8,0c3.6,1.1,6.2,2.1,7.8,3.1
		c1.5,0.9,2.5,1.8,2.9,2.7c0.4,0.9,1,2.6,1.8,5.3c0.8,2.7,1.7,5.1,2.8,7.2c0,0.3,0,0.5,0.1,0.8c0,0.2,0,0.7,0,1.2
		c-0.1,0.1-0.5,0.2-1.1,0.2c-0.5,0-0.9-0.1-1.3-0.2c-2.2-4.4-3.7-7.1-4.3-8.1c-0.7-0.9-1.5-1.5-2.6-1.8c-1-0.3-2-0.6-2.9-0.8
		C366.6,36.8,365.9,36.2,365.3,35.3"/>
	<path fill="#782C38" d="M147.7,80.2c1.6-1.9,2.4-4,2.4-6.5c0-3.8-2-5.7-6-5.7c-2.3,0-4.6,0.6-6.7,1.8c-2.2,1.2-3.9,2.8-5.3,4.6
		c-1.3,1.8-2,3.6-2,5.4c0,1.2,0.6,2.5,1.7,4c1.1,1.5,2.7,2.2,4.8,2.3c1.3,0,3.1-0.5,5.3-1.6C144.2,83.5,146.1,82,147.7,80.2
		 M198.8,90.4c1.1-1.1,1.6-1.9,1.6-2.2c0-1.4-1.6-2.6-4.8-3.6c-3.2-1-5.5-1.4-6.8-1.4c-3.4,0-6.5,0.7-9.3,2.2c-2.8,1.4-5,3.1-6.6,5
		c-1.6,1.9-2.4,3.4-2.4,4.7c0.4,1.3,1.4,2.2,2.9,2.7c1.5,0.5,3.1,0.7,4.8,0.7c3.2,0,6.1-0.4,8.9-1.3c2.7-0.8,5.1-1.9,7.1-3.1
		C196.2,92.7,197.7,91.6,198.8,90.4 M293.7,86.9c2-3,3-5.4,3-7.2c0-2-1.1-3.9-3.4-5.8c-2.2-1.9-4.9-2.8-8-2.8
		c-1.2,0-3.1,0.6-5.7,1.9c-2.7,1.2-5.1,3.1-7.3,5.5c-2.2,2.4-3.3,5.3-3.3,8.7c0,3.2,0.9,5.8,2.7,7.9c1.8,2,3.9,3,6.2,3
		c2.7,0,5.5-1.1,8.4-3.4C289.3,92.5,291.8,89.9,293.7,86.9 M326.6,52.8l55.9,0l0,5.7l-55.9,0l0,14.1c0.7-0.7,1.5-1.6,2.3-2.5
		c0.9-0.9,1.9-1.8,3-2.6c1.1-0.8,2.5-1.5,4.1-2.1c1.6-0.6,3.5-0.9,5.5-0.9c3.8,0,7.2,1,10.2,3.2c3,2.1,5.2,4.8,6.9,8.1
		c1.7,3.3,2.5,6.5,2.5,9.7c0,3.3-0.8,6.4-2.4,9.2c-1.6,2.8-3.2,5-4.8,6.6c-1.6,1.6-2.8,2.6-3.6,3.2l-7.7-4.6
		c0.4-0.6,1.4-1.7,2.8-3.1c1.4-1.5,2.7-2.9,3.8-4.4c1.1-1.4,2.1-3.2,2.9-5.4c0.8-2.2,1.3-4.6,1.3-7.3c0-3.3-0.8-5.9-2.3-8
		c-1.6-2-3.7-3.1-6.5-3.1c-2.6,0.1-5.3,1-8.2,2.8c-2.9,1.8-5.3,3.9-7.3,6.6c-2,2.6-3,5.2-3,7.6l0,18.6l-8.8-4.7l0.1-41l-10,0
		l-0.2,45.8l-8.5-3.6l0-6.7c-2.5,3.2-4.9,5.7-7.2,7.3c-2.3,1.7-4.9,2.5-7.7,2.5c-2.7,0-5.8-1.1-9.2-3.3c-3.4-2.2-6.3-5-8.7-8.4
		c-2.4-3.4-3.6-6.8-3.6-10.2c0.1-1.3,0.5-2.9,1.3-4.8c0.8-1.9,2-3.8,3.7-5.8c1.6-2,3.6-3.6,5.8-4.9c2.3-1.3,4.8-1.9,7.6-1.9
		c3.2,0,6,1,8.4,2.9c2.3,2,5.5,5.1,9.5,9.5l0-18.5l-119,0.1l0,7.5c0.6,0.4,1.3,0.2,2.7-0.2c1.4-0.4,2.9-0.7,4.7-1
		c1.8-0.3,3.4-0.4,5.1-0.4c3.7,0,6.7,0.5,8.9,1.5c2.2,1,3.7,2.5,4.7,4.4c0.9,1.9,1.5,4,1.7,6.3c0.2,2.3,0.3,5.5,0.3,9.6l0,18.5
		c-1.7-0.7-3.3-1.4-4.6-2c-1.4-0.7-2.3-1.2-2.9-1.5c0-1-0.2-1.7-0.6-1.9c-1,0.6-2.2,1.2-3.5,1.9c-1.3,0.7-3,1.3-5,1.9
		c-2.1,0.5-4.5,0.8-7.4,0.8c-2.7,0-5.4-0.5-8-1.5c-2.6-1-4.7-2.4-6.3-4.3c-1.6-1.9-2.4-4-2.4-6.3c0-2.2,1-4.5,3.1-6.9
		c2-2.4,4.8-4.4,8.2-6c3.4-1.6,7.1-2.4,11.2-2.4c2.2,0,4.3,0.3,6.2,1c2,0.6,3.5,1.4,4.5,2.1l0-4.3c-1.2-1.6-2.4-2.7-3.6-3.3
		c-1.2-0.6-3.1-0.9-5.6-0.9c-3.3,0.1-5.9,0.4-7.8,0.8c-1.9,0.4-3.9,1.1-6.1,2c-2.2,0.9-4,1.6-5.5,2.1l0-3.4c0.2-0.2,0.5-0.4,0.9-0.8
		c0.4-0.3,0.7-0.6,0.8-0.7l0.3-12.4l-23.3,0l0,7.8c0,0.4,0.1,0.9,0.2,1.5c0.1,0.6,0.4,1,0.9,1.2c0.5,0,1.2-0.5,1.9-1.4
		c0.7-0.9,1.4-1.6,1.9-2.2c0.5-0.5,1.4-0.9,2.6-1c0.9,0,1.9,0.3,2.9,0.9c1,0.6,1.9,1.4,2.7,2.5c0.8,1,1.3,2.1,1.6,3.1l-4.9,5.6
		c0-1.3-0.3-2.7-1-4.1c-0.7-1.5-1.6-2.2-2.7-2.2c-0.3,0-0.7,0.2-1.4,0.6c-0.7,0.4-1,0.8-1,1.3c0,0,0.2,0.4,0.5,1
		c0.3,0.7,0.6,1.4,0.9,2.1c0.2,0.8,0.4,1.7,0.4,2.7c0,4.2-1.4,6.9-4.3,8.2c-2.8,1.3-6.7,1.9-11.7,1.9c-4.9,0-8.4,0.8-10.7,2.4
		c-2.3,1.6-3.4,3.1-3.4,4.4c0.1,1.2,0.7,2.1,1.7,2.6c1.1,0.6,1.9,0.9,2.5,0.9c1.3,0,2.7-0.3,4.1-0.8c1.4-0.6,3.5-1.5,6.2-2.9
		c2.8-1.3,5.3-2.4,7.5-3.2c2.3-0.8,4.6-1.2,6.8-1.3c3.6,0,6.4,1.4,8.4,4.4c2,2.9,3.4,6,4.1,9.3c0.7,3.3,1,5.8,1,7.4
		c0,3.4-0.8,5.7-2.4,6.9c-1.6,1.2-3.6,1.8-6.1,1.8c-1.8,0-3.4-0.2-4.6-0.7c-1.2-0.5-3.2-1.4-6-2.8c-2.8-1.4-5.2-2.4-7.2-3
		c-2-0.7-4.1-1-6.3-1c-3.4,0-7,0.8-10.9,2.4c-3.9,1.6-7.4,3.8-10.7,6.7c-3.3,2.9-5.8,6.3-7.7,10.3c-0.1-0.5-0.2-1.3-0.2-2.4
		c0-2.3,0.6-4.8,1.7-7.6s2.7-5.4,4.8-7.8c2.1-2.5,4.7-4.5,7.7-6c3-1.6,6.3-2.3,9.9-2.3c3.5,0,6.2,0.5,8.1,1.5c1.9,1,4.5,2.6,7.7,4.7
		c3.2,2.2,5.6,3.2,7.2,3.2c1.9,0,3.7-0.5,5.5-1.4c1.8-1,3.2-2.2,4.3-3.7c1.1-1.5,1.6-2.9,1.6-4.3c0-1.5-0.3-2.9-1-4.2
		c-0.7-1.3-1.6-2.4-2.8-3.2c-1.2-0.8-2.7-1.2-4.3-1.2c-1.6,0-3.8,0.6-6.7,1.7c-2.9,1.1-5.8,2.2-8.7,3.4c-2.9,1.1-5.2,1.7-6.7,1.7
		c-1.5,0-3.3-0.7-5.4-2c-2.1-1.4-4-3-5.6-4.9c-1.6-1.9-2.4-3.7-2.4-5.2c0-1.4,0.8-2.8,2.5-4.3c1.7-1.4,3.5-2.3,5.4-2.4
		c-0.7-1.8-1.5-2.9-2.1-3.8c-0.6-0.9-1.1-1.7-1.4-2.6c-0.3-0.9-0.5-1.9-0.5-3.3c0-3.9,1.7-6.7,5.1-8.4c3.4-1.6,7.6-2.4,12.6-2.4
		l0.7-6l-67.7,0l0,9.2c0.8,0.2,1.5,0.4,2.1,0.7c0.6,0.3,0.9,0.5,1.1,0.6l0,5.5c-3.7-1.3-7.6-1.9-11.6-1.9c-2.7,0-5.7,0.6-9,1.7
		c-3.2,1.1-4.9,2.9-5,5.3c0,2.5,3.5,3.7,10.6,3.7c0.6,0,1.6,0,3-0.1c1.4-0.1,2.4-0.1,2.8-0.2l0,4.3c-2.2,0.1-4.8,0.2-7.8,0.4
		c-2.9,0.2-5.6,0.7-7.9,1.7c-2.3,1-3.5,2.6-3.5,4.7c0,1.8,1.1,3.3,3.2,4.4c2.1,1.1,4.5,1.7,7.2,1.7c5.4,0,10.2-1.2,14.3-3.7
		c4.1-2.5,7.6-5.7,10.4-9.8l0,11.9c-3.3,2.1-6.5,3.5-9.6,4.1c-3.1,0.7-6.2,1-9.5,1c-3.2,0-6.7-0.5-10.7-1.4c-4-1-7.3-2.3-10.2-4.1
		c-2.8-1.8-4.2-3.9-4.2-6.3c0-2.4,0.9-4.3,2.7-5.7c1.8-1.4,3.9-2.7,6.3-3.8c-1.2-0.7-2.3-1.3-3.1-1.8c-0.8-0.5-1.5-1-2-1.7
		c-0.5-0.7-0.7-1.5-0.7-2.6c0-2.1,0.8-3.8,2.5-5.2c1.7-1.4,3.8-2.5,6.2-3.2c2.5-0.7,5-1.2,7.6-1.5c2.6-0.3,5-0.4,7.3-0.4l0-7.5
		l-33.5,0l0-5.7L299,52.8c0-3.3-0.1-6-0.2-8.1c-0.2-2.1-0.6-4.5-1.4-7c-0.8-2.5-2-5.4-3.8-8.6c-1.7-3.2-4.1-6.8-7.1-10.8l9-1.5
		c3,3.3,5.7,7.6,8.2,13.1c2.5,5.4,3.8,13.1,3.8,23l10,0c0-5.1-0.7-9.6-2.1-13.6c-1.4-4-3.1-7.3-5-9.9c-1.9-2.6-3.5-4.5-4.9-5.8
		c-1.4-1.2-2.4-2.1-3-2.5l9.5-0.1c2.3,1.3,4.6,3.5,6.9,6.9c2.3,3.3,4.2,7.3,5.6,11.8C325.9,44,326.6,48.5,326.6,52.8"/>
	<path fill="#782C38" d="M251.4,70.3c1.8,1.9,3.2,4.1,4.2,6.7c1,2.6,1.5,5.3,1.5,8.3c0,3.3-0.7,6.7-2.2,10.2
		c-1.4,3.5-3.7,6.9-6.9,10.3l-9-5.7c0.6-0.7,1.6-1.8,3.1-3.3c1.5-1.4,2.9-2.9,4-4.4c1.2-1.5,2.1-3.3,3-5.5c0.8-2.2,1.2-4.8,1.2-7.8
		c0-7.5-3.5-11.3-10.6-11.2c-2.1,0-4.2,0.6-6.4,1.8c-2.2,1.2-4.1,2.9-5.8,5.1c-1.7,2.2-3.1,4.7-4.1,7.7c-1,3-1.6,6.1-1.6,9.2l0,13.6
		l-7.7-4l0.1-35.3l8.1,0l0,5.6c0.7-0.5,1.7-1.3,3.3-2.5c1.5-1.2,3.4-2.3,5.5-3.3c2.2-1,4.5-1.5,7.1-1.5c2.5,0,4.8,0.5,7.1,1.6
		C247.6,66.9,249.6,68.4,251.4,70.3"/>
	<polygon fill="#782C38" points="369.3,100.3 369.3,64.2 377.2,64.2 377.1,104.7 	"/>
	<polygon fill="#782C38" points="18.3,58.7 18.3,53 23.7,53 23.7,58.7 	"/>
</g>
<path fill="#FCBF00" d="M135.7,114.3L135.7,114.3c-3.2,0-6.6,0.8-10.3,2.2c-3.7,1.5-7.1,3.6-10.2,6.4c-0.2,0.2-0.4,0.4-0.7,0.6
	c0,0-0.1,0.1-0.1,0.1l-0.1,0.1c-0.2,0.2-0.3,0.3-0.4,0.4c-0.1,0.1-0.1,0.1-0.2,0.2c-0.1,0.1-0.3,0.3-0.4,0.5l-0.1,0.1
	c0,0-0.1,0.1-0.1,0.1c-0.2,0.2-0.4,0.4-0.6,0.7c0,0,0,0,0,0l0,0l0,0c0,0,0,0,0,0c-0.2,0.2-0.3,0.4-0.5,0.6c0,0-0.1,0.1-0.1,0.1
	l-0.1,0.1c-0.1,0.2-0.3,0.3-0.4,0.5c-0.1,0.1-0.1,0.2-0.2,0.2c-0.1,0.2-0.2,0.3-0.4,0.5l-0.1,0.1c0,0-0.1,0.1-0.1,0.1
	c-0.2,0.3-0.3,0.5-0.5,0.7c0,0,0,0,0,0c0,0,0,0,0,0c-0.2,0.2-0.3,0.5-0.5,0.8c0,0.1-0.1,0.1-0.1,0.2c-0.2,0.3-0.4,0.6-0.5,0.9h0l0,0
	c0,0,0,0,0,0l0,0c-0.1,0.2-0.3,0.5-0.4,0.8l4.4,3.3c0.1-0.1,0.1-0.3,0.2-0.4l0,0c0,0,0,0,0,0c0.2-0.3,0.4-0.6,0.6-1
	c0-0.1,0.1-0.2,0.1-0.2c0.2-0.3,0.4-0.6,0.6-0.9l0,0c0,0,0,0,0-0.1c0.2-0.3,0.4-0.5,0.6-0.8c0-0.1,0.1-0.1,0.1-0.2l0.1-0.1
	c0.1-0.2,0.3-0.4,0.4-0.6c0.1-0.1,0.1-0.2,0.2-0.3c0.1-0.2,0.3-0.3,0.4-0.5l0-0.1c0-0.1,0.1-0.1,0.1-0.2c0.2-0.2,0.4-0.5,0.6-0.7
	c0,0,0,0,0,0l0,0c0,0,0,0,0.1-0.1c0,0,0,0,0,0c0.2-0.2,0.4-0.5,0.6-0.7c0,0,0.1-0.1,0.1-0.1l0.1-0.1c0.2-0.2,0.3-0.3,0.5-0.5
	c0.1-0.1,0.2-0.2,0.2-0.2c0.2-0.2,0.3-0.3,0.5-0.5l0.1-0.1c0.1,0,0.1-0.1,0.2-0.2c0.3-0.2,0.5-0.5,0.7-0.7c3.4-3,7.2-5.4,11.2-7
	c4.1-1.6,7.9-2.5,11.5-2.5h0c0.5,0,1,0,1.5,0c-1-0.4-2-0.8-2.8-1.1C139.7,114.6,137.8,114.3,135.7,114.3 M87.2,98.7
	c0,0.6-0.3,1.1-0.8,1.4c-3.5,2.2-6.9,3.7-10.2,4.4c-3.2,0.7-6.5,1-9.8,1h0c-2.2,0-4.6-0.2-7.1-0.7c0,0,0,0,0,0c0,0,0,0,0,0
	c1.3,0.5,2.6,0.9,4.1,1.2c3.8,0.9,7.2,1.4,10.2,1.4h0c3.1,0,6.2-0.3,9.1-1c2.6-0.6,5.4-1.7,8.3-3.4L91,93l-3.8-2.8L87.2,98.7z
	 M173.4,120L173.4,120L173.4,120L173.4,120z M173.7,116.1L173.7,116.1c0-0.2,0-0.2,0-0.3l0-0.1c0-0.1,0-0.1,0-0.2v0l0-0.1l0-0.1
	c0-0.1,0-0.1,0-0.2l0-0.1c0-0.1,0-0.2,0-0.3c0,0,0,0,0,0v0l0,0v0v0v0c0-0.1,0-0.2,0-0.4l0,0l0-0.1c0-0.1,0-0.2,0-0.3l0-0.1l0-0.1
	c0-0.1,0-0.2,0-0.3c0-0.1,0-0.1,0-0.2c0-0.1,0-0.2,0-0.3l0-0.1l0-0.1c0-0.1,0-0.3-0.1-0.4c0,0,0,0,0,0l0,0c0-0.2-0.1-0.3-0.1-0.5
	l0-0.1c0-0.1,0-0.2-0.1-0.4l0-0.1l0,0c0-0.1,0-0.2-0.1-0.4l0-0.1l0-0.1v0v0l0-0.1l0,0l0-0.2l0-0.1l0-0.1l0-0.1
	c0-0.2-0.1-0.4-0.1-0.6c0-0.2-0.1-0.5-0.2-0.7c0-0.1,0-0.1,0-0.2l0,0c-0.1-0.2-0.1-0.4-0.2-0.6l0,0h0c0,0,0,0,0-0.1l0,0
	c-0.1-0.2-0.1-0.5-0.2-0.7c0,0,0-0.1,0-0.1l0-0.1c-0.1-0.2-0.1-0.4-0.2-0.6l0-0.1c0,0,0,0,0-0.1c-0.1-0.2-0.2-0.5-0.3-0.7
	c0,0,0-0.1,0-0.1l0-0.1c-0.1-0.2-0.2-0.4-0.3-0.6l0-0.1c0,0,0-0.1,0-0.1c-0.1-0.2-0.2-0.5-0.3-0.7c0,0,0-0.1,0-0.1l0-0.1
	c-0.1-0.2-0.2-0.4-0.3-0.6c0,0,0-0.1,0-0.1l0,0l0,0c0,0,0-0.1,0-0.1c-0.1-0.1-0.1-0.2-0.2-0.3l0-0.1c0-0.1-0.1-0.1-0.1-0.2
	c-0.1-0.1-0.1-0.2-0.2-0.3l0,0l-0.1-0.1c0,0,0-0.1-0.1-0.1c-0.1-0.1-0.2-0.2-0.2-0.4l-0.1-0.1c0,0,0-0.1-0.1-0.1
	c-0.1-0.2-0.2-0.4-0.4-0.5c-0.1-0.1-0.2-0.2-0.2-0.3c0,0,0,0,0,0c0,0,0,0,0-0.1l0,0c0-0.1-0.1-0.1-0.1-0.2c0,0,0,0,0,0
	c-0.1-0.1-0.2-0.2-0.3-0.3c0,0-0.1-0.1-0.1-0.1c-0.1-0.1-0.2-0.2-0.3-0.3c0,0,0,0,0,0c0,0,0,0-0.1-0.1c0.1,0.1,0.1,0.3,0.2,0.4
	c0,0,0,0.1,0,0.1l0,0c0.1,0.2,0.2,0.5,0.2,0.7l0,0.1c0,0,0,0.1,0,0.1c0.1,0.3,0.2,0.6,0.3,0.8c0,0,0,0.1,0,0.1l0,0
	c0.1,0.2,0.1,0.4,0.1,0.6c0,0,0,0.1,0,0.1c0,0,0,0.1,0,0.2c0,0,0,0.1,0,0.1c0.1,0.3,0.1,0.6,0.2,0.9c0,0.2,0.1,0.4,0.1,0.6l0,0.1
	l0,0.1c0,0.1,0,0.2,0.1,0.3l0,0.2l0,0.1c0,0.1,0,0.2,0.1,0.3c0,0.1,0,0.1,0,0.2c0,0.1,0,0.2,0.1,0.3v0l0,0.2c0,0.2,0.1,0.3,0.1,0.5
	l0,0.1l0,0c0,0.1,0,0.3,0.1,0.4l0,0.1l0,0.1c0,0.1,0,0.2,0,0.3l0,0.2c0,0.1,0,0.2,0,0.3l0,0c0,0,0,0.1,0,0.1c0,0.1,0,0.2,0,0.3
	l0,0.1l0,0.1c0,0.1,0,0.3,0,0.4c0,0,0,0,0,0.1v0c0,0.1,0,0.2,0,0.3l0,0.1l0,0c0,0.1,0,0.2,0,0.3l0,0.1v0c0,0.1,0,0.2,0,0.2l0,0
	l0,0.1c0,0.1,0,0.2,0,0.2v0c0,0,0,0.1,0,0.1c0,0.1,0,0.2,0,0.3c0,0.1,0,0.2,0,0.4c0,0.2,0,0.4,0,0.6c0,0.1,0,0.1,0,0.2l0,0.1
	c0,0.1,0,0.3,0,0.4c0,0.1,0,0.1,0,0.2l0,0.1c0,0.1,0,0.3,0,0.4c0,0.1,0,0.1,0,0.2l0,0c0,0.1,0,0.2,0,0.4c0,0.1,0,0.1,0,0.2
	c0,0.1,0,0.3-0.1,0.4l0,0c0,0,0,0.1,0,0.1c0,0.2-0.1,0.4-0.1,0.5c0,0,0,0,0,0l0,0c0,0.2-0.1,0.3-0.1,0.5c0,0,0,0.1,0,0.1l0,0
	c0,0.2-0.1,0.3-0.1,0.4c0,0,0,0,0,0c0,0,0,0,0,0c0,0,0,0,0,0c0,0.1-0.1,0.3-0.2,0.4c0,0,0,0.1,0,0.1c-0.1,0.2-0.1,0.3-0.2,0.4
	c0,0,0,0,0,0c-0.1,0.1-0.1,0.2-0.2,0.4l0,0c0,0,0,0.1,0,0.1c-0.1,0.1-0.2,0.3-0.2,0.4c-0.1,0.1-0.1,0.2-0.2,0.2l0,0l0,0
	c0,0.1-0.1,0.1-0.1,0.2c-0.1,0.1-0.1,0.2-0.2,0.2l0,0l0,0c0,0-0.1,0.1-0.1,0.1c-0.1,0.1-0.2,0.2-0.2,0.2l0,0l0,0
	c0,0-0.1,0.1-0.1,0.1c-0.1,0.1-0.3,0.2-0.4,0.3c-1.9,1.4-4.2,2.1-6.9,2.1c1.3,0.6,2.3,1.1,3,1.3c1,0.4,2.3,0.6,3.9,0.6h0
	c2.1,0,3.8-0.5,5.1-1.5c0.1,0,0.1-0.1,0.2-0.1c0,0,0,0,0.1-0.1l0,0c0,0,0.1-0.1,0.1-0.1l0,0c0,0,0,0,0.1-0.1l0,0c0,0,0,0,0.1-0.1
	c0,0,0,0,0,0l0-0.1l0,0c0,0,0-0.1,0.1-0.1c0,0,0,0,0,0c0,0,0.1-0.1,0.1-0.2l0,0l0,0c0,0,0,0,0,0c0-0.1,0.1-0.2,0.1-0.2v0
	c0,0,0,0,0,0c0-0.1,0.1-0.1,0.1-0.2l0,0c0,0,0,0,0-0.1c0,0,0,0,0-0.1c0-0.1,0.1-0.2,0.1-0.3l0,0c0-0.1,0.1-0.2,0.1-0.3l0,0l0-0.1
	c0,0,0,0,0,0c0,0,0,0,0-0.1v0c0-0.1,0-0.2,0.1-0.3c0,0,0,0,0,0l0,0c0-0.1,0-0.2,0.1-0.4c0,0,0,0,0-0.1l0-0.1c0-0.1,0-0.2,0-0.3
	c0-0.1,0-0.1,0-0.2c0,0,0,0,0-0.1l0,0v0v0c0,0,0,0,0-0.1c0,0,0-0.1,0-0.1l0,0c0,0,0-0.1,0-0.2c0-0.1,0-0.2,0-0.3l0-0.1
	c0,0,0-0.1,0-0.1c0-0.1,0-0.2,0-0.4c0,0,0-0.1,0-0.1c0,0,0,0,0-0.1c0-0.2,0-0.4,0-0.6c0-0.1,0-0.2,0-0.3
	C173.7,116.3,173.7,116.2,173.7,116.1 M212.1,77.6L212.1,77.6L212.1,77.6C212.1,77.6,212.1,77.6,212.1,77.6 M199.7,101.2
	c-0.8,0.5-1.7,0.9-2.5,1.4c-1.4,0.8-3.2,1.4-5.4,2c-2.2,0.6-4.8,0.9-7.8,0.9h0c-0.5,0-1,0-1.6,0c0.4,0.2,0.9,0.4,1.4,0.6
	c2.4,0.9,4.9,1.4,7.3,1.4h0c2.7,0,5-0.3,6.9-0.7c1.9-0.5,3.5-1.1,4.6-1.7c0.4-0.2,0.8-0.4,1.2-0.7l-2.2-1.6L199.7,101.2z
	 M308.8,42.9l0,0.1c0,0.1,0,0.2,0,0.2c0,0.1,0,0.2,0,0.4l0,0.1l0,0.1c0,0.1,0,0.2,0,0.3c0,0.1,0,0.2,0,0.4l0,0.1l0,0.1
	c0,0.1,0,0.2,0,0.2c0,0.1,0,0.2,0,0.3l0,0.1l0,0.2c0,0.1,0,0.1,0,0.2c0,0.1,0,0.2,0,0.4l0,0.1l0,0.1c0,0.1,0,0.2,0,0.2
	c0,0.1,0,0.3,0,0.4l0,0.1l0,0.1c0,0.1,0,0.1,0,0.2c0,0.3,0,0.6,0,0.9c0,0.1,0,0.1,0,0.2l0,0.2l0,0.1c0,0.1,0,0.3,0,0.4
	c0,0.1,0,0.2,0,0.3l0,0.1l0,0.1c0,0.1,0,0.2,0,0.3c0,0.4,0,0.8,0,1.2l0,0.1v0.1c0,0.1,0,0.3,0,0.4l1.1,0.9l2.5,0c0,0,0-0.1,0-0.1
	l0-0.1c0-0.2,0-0.4,0-0.6c0-0.1,0-0.1,0-0.2l0-0.1l0-0.1c0-0.1,0-0.3,0-0.4l0-0.2l0-0.1l0-0.1c0-0.1,0-0.3,0-0.4c0-0.1,0-0.1,0-0.2
	l0-0.2v0l0-0.1c0-0.1,0-0.2,0-0.3c0-0.1,0-0.2,0-0.3l0-0.1c0-0.1,0-0.2,0-0.3c0-0.1,0-0.2,0-0.3v0v0c0-0.1,0-0.3,0-0.4
	c0-0.1,0-0.2,0-0.3v0l0-0.1c0-0.1,0-0.2,0-0.3c0-0.1,0-0.2,0-0.3c0-0.1,0-0.3,0-0.4c0-0.1,0-0.2,0-0.3l0-0.1c0-0.1,0-0.2-0.1-0.4
	c0-0.1,0-0.2,0-0.2l0-0.1l0-0.1c0-0.1,0-0.2,0-0.2c0-0.1,0-0.2-0.1-0.3c0-0.1,0-0.2-0.1-0.3c0-0.1,0-0.2-0.1-0.3
	c0-0.1,0-0.2-0.1-0.3c0-0.1,0-0.2-0.1-0.3l0-0.1l0-0.1v0c0,0,0-0.1,0-0.1c-0.1-0.3-0.1-0.7-0.2-1l0-0.1l0-0.1
	c-0.1-0.3-0.1-0.6-0.2-0.9l0-0.1l0,0c-0.1-0.3-0.2-0.6-0.2-0.9c0-0.1,0-0.1,0-0.2c-0.1-0.3-0.2-0.6-0.3-0.8l0-0.1l0-0.1
	c-0.1-0.3-0.2-0.6-0.3-0.8l0,0l0,0c-0.1-0.2-0.2-0.5-0.3-0.8l0,0c0,0,0-0.1,0-0.1c-0.1-0.3-0.2-0.5-0.3-0.7c0,0,0,0,0,0
	c0,0,0,0,0-0.1l0-0.1c-0.1-0.3-0.2-0.5-0.3-0.7c-0.2-0.3-0.3-0.7-0.5-1.1c0-0.1-0.1-0.1-0.1-0.2l-0.1-0.1c-0.1-0.2-0.2-0.5-0.3-0.7
	c-0.1-0.1-0.1-0.2-0.2-0.3l0,0c-0.1-0.2-0.2-0.4-0.3-0.6c-0.1-0.1-0.1-0.3-0.2-0.4c-0.1-0.2-0.2-0.4-0.3-0.6l-0.1-0.1
	c0,0,0-0.1-0.1-0.1c0,0,0,0,0-0.1l0-0.1c-0.1-0.2-0.2-0.4-0.3-0.6l-0.1-0.1c0-0.1-0.1-0.2-0.1-0.2c-0.1-0.2-0.3-0.4-0.4-0.7
	c0,0,0-0.1-0.1-0.1c0,0,0-0.1-0.1-0.1c-0.2-0.3-0.4-0.6-0.5-0.9c0,0-0.1-0.1-0.1-0.1l-0.1-0.1c-0.1-0.2-0.3-0.4-0.4-0.6
	c-0.1-0.1-0.1-0.2-0.2-0.2l0-0.1c-0.1-0.2-0.2-0.3-0.4-0.5c-0.1-0.1-0.1-0.2-0.2-0.3c-0.1-0.1-0.2-0.2-0.2-0.3
	c0,0.1,0.1,0.1,0.1,0.2l0.1,0.1c0.1,0.1,0.1,0.2,0.2,0.3c0.1,0.2,0.2,0.5,0.4,0.7l0.1,0.1c0,0.1,0.1,0.2,0.1,0.2
	c0.2,0.4,0.4,0.8,0.5,1.1c0.1,0.2,0.2,0.5,0.4,0.8l0,0.1l0,0.1c0.1,0.3,0.2,0.6,0.3,0.8v0c0,0,0,0.1,0.1,0.1l0,0
	c0.1,0.3,0.2,0.6,0.3,0.9l0,0l0,0c0.1,0.3,0.2,0.6,0.3,0.9l0,0c0,0,0,0.1,0,0.1c0.1,0.3,0.2,0.6,0.3,0.9l0,0.1l0,0.1
	c0.1,0.4,0.2,0.7,0.3,1c0,0,0,0,0,0.1l0,0c0.1,0.3,0.2,0.6,0.2,1l0,0.1c0,0,0,0.1,0,0.1c0.1,0.3,0.1,0.7,0.2,1c0,0.1,0,0.2,0.1,0.3
	c0,0.1,0,0.2,0.1,0.3c0,0.1,0,0.3,0.1,0.4l0,0c0,0.1,0,0.2,0.1,0.3c0,0.1,0,0.3,0.1,0.4c0,0.1,0,0.2,0.1,0.3c0,0.1,0,0.3,0.1,0.4
	l0,0.1c0,0.1,0,0.2,0,0.3c0,0.1,0,0.3,0.1,0.4l0,0.1c0,0.1,0,0.2,0,0.2c0,0.1,0,0.3,0.1,0.4l0,0c0,0.1,0,0.2,0,0.3
	c0,0.1,0,0.3,0,0.4l0,0.1c0,0.1,0,0.2,0,0.3C308.8,42.6,308.8,42.7,308.8,42.9L308.8,42.9z M80.4,70.2l0,4.4c0,0.5-0.3,1.1-0.7,1.4
	c-0.3,0.2-0.6,0.3-1,0.3c-0.2,0-0.4,0-0.6-0.1c-3.5-1.2-7.2-1.8-11-1.8h0c-2.5,0-5.4,0.5-8.4,1.6c-0.1,0.1-0.3,0.1-0.5,0.2l0,0l0,0
	c-0.2,0.1-0.3,0.1-0.4,0.2l0,0l0,0c-0.1,0.1-0.2,0.1-0.3,0.2l0,0l0,0c-0.1,0.1-0.2,0.1-0.3,0.2c0,0,0,0-0.1,0
	c-0.1,0.1-0.2,0.1-0.3,0.2c0,0,0,0,0,0h0c-0.1,0.1-0.2,0.1-0.3,0.2l0,0l0,0c-0.1,0.1-0.2,0.1-0.2,0.2l0,0l0,0
	c-0.1,0.1-0.1,0.1-0.2,0.2c0,0,0,0,0,0l0,0c-0.1,0.1-0.1,0.1-0.2,0.2c0,0,0,0,0,0c0,0,0,0,0,0c-0.1,0.1-0.1,0.1-0.1,0.2c0,0,0,0,0,0
	l0,0c0,0,0,0.1-0.1,0.1l0,0c0,0-0.1,0.1-0.1,0.1l0,0c0,0,0,0,0,0.1c0,0,0,0.1,0,0.1c0,0,0,0,0,0c0,0,0,0,0,0l0,0c0,0,0,0,0,0.1
	c0,0.1,0,0.1-0.1,0.2c0,0,0,0.1,0,0.1c0,0,0,0.1,0,0.1l0,0c0,0,0,0.1,0,0.1l0,0c0,0,0,0,0,0c0,0.1,0,0.1,0,0.2c0,0,0,0,0,0.1
	c0,0.1,0,0.1,0,0.2v0c0,0,0,0,0,0c0,0,0,0,0,0c0,0,0,0,0,0c0,0,0,0,0,0l0,0c0,0,0,0,0,0h0c0,0,0,0,0,0c0,0,0,0,0,0l0,0l0,0
	c0,0,0,0,0,0c0,0,0,0,0,0c0,0,0,0,0,0c0,0,0,0,0,0c0,0,0,0,0,0c0,0,0,0,0.1,0.1l0,0c0,0,0.1,0.1,0.1,0.1l3.7,2.7
	c0-0.1,0.1-0.2,0.1-0.3l0,0c0,0,0-0.1,0.1-0.1c0-0.1,0.1-0.2,0.1-0.3l0,0l0,0c0-0.1,0.1-0.1,0.1-0.2c0.1-0.1,0.1-0.2,0.2-0.3l0,0
	l0,0c0,0,0.1-0.1,0.1-0.2c0.1-0.1,0.2-0.3,0.3-0.4c0,0,0-0.1,0.1-0.1c0.1-0.1,0.2-0.3,0.3-0.4c0,0,0,0,0.1-0.1
	c0.1-0.1,0.2-0.2,0.3-0.3l0,0c0,0,0,0,0.1-0.1c0.1-0.1,0.3-0.2,0.4-0.3c0,0,0,0,0,0l0.1,0l0,0c0.1-0.1,0.3-0.2,0.4-0.3c0,0,0,0,0,0
	c0.1-0.1,0.3-0.2,0.5-0.3c0,0,0,0,0,0c0,0,0.1,0,0.1-0.1c0.2-0.1,0.3-0.2,0.5-0.3c0,0,0,0,0.1,0l0,0c0.1-0.1,0.3-0.2,0.5-0.2l0,0
	c0,0,0,0,0.1,0c0.2-0.1,0.3-0.1,0.5-0.2l0.1,0l0,0c0.2-0.1,0.4-0.2,0.6-0.2c3.4-1.2,6.6-1.8,9.5-1.8h0c3.4,0,6.7,0.4,9.9,1.3l0-2.4
	l-2.5-1.9C81.2,73.1,81,72.6,81,72l0-8.1c0-0.9,0.8-1.7,1.7-1.7l60.1,0l0.2-1.7l-0.3-0.3l-65.4,0l0,6.6l2.5,1.9
	C80.1,69.1,80.4,69.6,80.4,70.2 M68.3,60.7l-0.6-0.4l-27.4,0h0c-0.4,0-0.9-0.2-1.2-0.5c-0.3-0.3-0.5-0.7-0.5-1.2l-3.8,0L34.8,105
	c0,0.2,0,0.4-0.1,0.6c0.9,0.5,1.8,0.9,2.7,1.4c0.4,0.2,0.8,0.4,1.2,0.6l0.1-44.9c0-0.6,0.4-1.2,0.9-1.5c0.2-0.1,0.5-0.2,0.8-0.2
	c0.4,0,0.7,0.1,1,0.3l1.1,0.8l25.8,0L68.3,60.7z M34.8,44.3l0,0.1c0,0.3,0,0.5,0.1,0.7c0,0.1,0,0.2,0,0.4c0,0.2,0,0.4,0,0.7l0,0.1
	c0,0.1,0,0.2,0,0.3c0,0.3,0,0.6,0,0.9l0,5.7l3.8,0l0-0.4c0-0.2,0-0.5,0-0.7v0c0,0,0-0.1,0-0.1c0-0.1,0-0.1,0-0.2l0-0.1
	c0-0.2,0-0.4,0-0.6c0-0.1,0-0.2,0-0.3c0-0.2,0-0.4,0-0.6l0-0.1c0-0.1,0-0.1,0-0.2c0-0.3-0.1-0.6-0.1-0.9v0v0v0c0,0,0,0,0-0.1
	c0-0.3-0.1-0.6-0.1-1c0-0.1,0-0.1,0-0.2l0-0.1c0-0.3-0.1-0.5-0.1-0.7c0-0.1,0-0.2-0.1-0.4c0-0.2-0.1-0.5-0.1-0.7l0-0.1
	c0-0.1,0-0.2-0.1-0.3c0,0,0-0.1,0-0.1c0,0,0,0,0-0.1c-0.1-0.3-0.1-0.6-0.2-0.9c-0.7-3.1-1.8-6.3-3.5-9.6c-0.1-0.2-0.2-0.4-0.3-0.6
	c0,0,0-0.1-0.1-0.1l-0.1-0.1l0-0.1c0-0.1-0.1-0.2-0.2-0.3c0,0,0,0,0,0l0,0c0,0,0,0,0-0.1c-0.1-0.2-0.2-0.3-0.3-0.5
	c0,0-0.1-0.1-0.1-0.1l-0.1-0.1c-0.1-0.1-0.2-0.3-0.2-0.4c0-0.1-0.1-0.1-0.1-0.2L32.7,32c-0.1-0.1-0.2-0.2-0.2-0.4
	c-0.1-0.1-0.1-0.2-0.2-0.2c-0.1-0.1-0.2-0.2-0.2-0.4C32,31,32,30.9,31.9,30.8c-0.1-0.1-0.2-0.2-0.3-0.4l0-0.1c0-0.1-0.1-0.1-0.1-0.2
	c-0.1-0.1-0.2-0.3-0.3-0.4l-0.1-0.1c0,0,0-0.1-0.1-0.1c-0.1-0.2-0.3-0.4-0.4-0.5c0,0,0,0,0,0l0,0c1.5,3.1,2.5,6.2,3.2,9.2
	c0.1,0.3,0.1,0.7,0.2,1.1c0,0.1,0,0.2,0.1,0.4c0,0.3,0.1,0.5,0.1,0.8c0,0.1,0,0.3,0.1,0.4c0,0.2,0.1,0.5,0.1,0.8l0,0.1
	c0,0.1,0,0.2,0,0.2c0.1,0.4,0.1,0.7,0.1,1c0,0,0,0,0,0.1v0v0c0,0.3,0.1,0.6,0.1,1C34.8,44.1,34.8,44.2,34.8,44.3 M328,47.4
	c0,0.2,0,0.3,0.1,0.5c0,0.1,0,0.3,0,0.4c0,0.2,0,0.3,0.1,0.5c0,0.1,0,0.3,0,0.4c0,0.2,0,0.3,0,0.5l0,0c0,0.1,0,0.2,0,0.3
	c0,0.2,0,0.3,0,0.5l0,0.1c0,0.1,0,0.2,0,0.3c0,0.1,0,0.3,0,0.4l0,0.1l0,0.1c0,0.1,0,0.2,0,0.3c0,0,0,0.1,0,0.1l1.2,0.9l2.3,0
	c0-0.1,0-0.3-0.1-0.4c0-0.1,0-0.2-0.1-0.4c0-0.1-0.1-0.3-0.1-0.5c0-0.1,0-0.2-0.1-0.4c0-0.2-0.1-0.3-0.1-0.5c0,0,0-0.1,0-0.1
	c0,0,0-0.1,0-0.1l0,0c0,0,0-0.1,0-0.1l0-0.2c0-0.2-0.1-0.3-0.1-0.5l0,0c0-0.1,0-0.2-0.1-0.2c0-0.2-0.1-0.4-0.1-0.6l0-0.1
	c0,0,0-0.1,0-0.1c-0.1-0.2-0.1-0.5-0.2-0.7l0-0.1l0-0.1c0-0.2-0.1-0.4-0.2-0.6l0-0.1l0-0.1c0-0.2-0.1-0.3-0.2-0.5l0-0.1l0-0.1
	c-0.1-0.3-0.2-0.5-0.2-0.7c-0.1-0.3-0.2-0.6-0.3-1c0-0.1-0.1-0.2-0.1-0.3c-0.1-0.3-0.2-0.5-0.3-0.8l0-0.1c0,0,0-0.1,0-0.1
	c-0.1-0.3-0.2-0.6-0.4-1c0,0,0-0.1,0-0.1l0-0.1c-0.1-0.3-0.2-0.5-0.3-0.8c0-0.1-0.1-0.2-0.1-0.3c-0.1-0.3-0.2-0.5-0.4-0.8
	c0,0,0,0,0-0.1l0,0c-0.1-0.3-0.3-0.6-0.4-0.9l-0.1-0.1c0,0,0-0.1-0.1-0.1c0,0,0,0,0,0c-0.1-0.2-0.2-0.4-0.3-0.7l-0.1-0.1
	c0,0,0-0.1-0.1-0.1c-0.1-0.3-0.3-0.6-0.4-0.8v0c0,0,0,0,0,0c0,0,0,0,0,0c0,0,0-0.1,0-0.1c-0.1-0.2-0.2-0.4-0.3-0.6
	c0-0.1-0.1-0.1-0.1-0.2l-0.1-0.1c-0.1-0.2-0.2-0.3-0.3-0.5c-0.1-0.1-0.1-0.2-0.2-0.3c-0.1-0.2-0.2-0.3-0.3-0.5l-0.1-0.1
	c0,0-0.1-0.1-0.1-0.1c-0.2-0.2-0.3-0.5-0.5-0.7c-0.1-0.2-0.2-0.3-0.4-0.5l-0.1-0.1l0-0.1c-0.1-0.1-0.2-0.3-0.3-0.4
	c0-0.1-0.1-0.1-0.1-0.2c-0.1-0.1-0.1-0.2-0.2-0.2c0.1,0.3,0.2,0.5,0.3,0.7c0,0,0,0.1,0,0.1l0,0c0.1,0.3,0.2,0.6,0.4,0.9
	c0,0.1,0.1,0.2,0.1,0.3c0.1,0.3,0.2,0.5,0.3,0.8l0,0.1c0,0,0,0.1,0.1,0.1c0.1,0.3,0.3,0.7,0.4,1c0,0,0,0.1,0.1,0.1l0,0.1
	c0.1,0.3,0.2,0.6,0.3,0.8l0,0c0,0.1,0.1,0.2,0.1,0.3c0.1,0.4,0.3,0.7,0.4,1.1c0.1,0.2,0.2,0.5,0.3,0.8c0,0.1,0,0.1,0,0.2l0,0.1
	c0.1,0.2,0.1,0.4,0.2,0.6c0,0.1,0,0.2,0.1,0.2l0,0c0.1,0.2,0.1,0.4,0.2,0.6l0,0.1l0,0.1c0.1,0.3,0.1,0.6,0.2,0.8l0,0.1l0,0.1
	c0.1,0.2,0.1,0.4,0.1,0.6c0,0.1,0,0.2,0.1,0.3c0,0.2,0.1,0.4,0.1,0.5l0,0c0,0.1,0,0.1,0,0.2c0,0.1,0,0.2,0.1,0.3l0,0.1
	c0,0.2,0.1,0.3,0.1,0.5c0,0.1,0,0.2,0.1,0.4l0,0c0,0.2,0.1,0.3,0.1,0.5c0,0.1,0,0.3,0.1,0.4c0,0.2,0,0.3,0.1,0.5
	C327.9,47.1,328,47.3,328,47.4 M213.4,90.5c0-0.2,0-0.3,0-0.5v-0.3l0-0.4l0-0.3v-0.2l0-0.2v-0.1l0-0.1c0-0.1,0-0.3,0-0.4V88l0-0.1
	c0-0.2,0-0.4,0-0.6v0l0-0.1v0l0-0.1c0-0.1,0-0.2,0-0.3v0v0v0c0-0.2,0-0.3,0-0.5v-0.1l0-0.1c0-0.2,0-0.4,0-0.6l0-0.1v-0.1l0-0.1
	c0-0.1,0-0.3,0-0.4c0-0.1,0-0.1,0-0.2l0-0.1c0-0.1,0-0.3,0-0.4c0-0.1,0-0.1,0-0.2c0-0.1,0-0.2,0-0.3l0-0.2l0,0c0-0.1,0-0.2,0-0.3
	c0-0.1,0-0.1,0-0.2c0-0.1,0-0.2,0-0.3l0-0.1l0-0.1c0-0.2,0-0.3,0-0.5c0-0.2,0-0.4-0.1-0.7l0,0c0,0,0-0.1,0-0.1
	c0-0.2-0.1-0.5-0.1-0.7l0,0l0-0.1l0,0c0-0.1,0-0.2,0-0.3c0,0,0-0.1,0-0.1l0-0.1l0-0.1c0,0,0-0.1,0-0.1c0-0.2-0.1-0.4-0.2-0.6l0,0
	l0-0.1c0-0.2-0.1-0.4-0.2-0.5l0-0.1c0,0,0-0.1,0-0.1c-0.1-0.2-0.1-0.4-0.2-0.6l0,0c0,0,0,0,0-0.1c-0.1-0.2-0.1-0.3-0.2-0.5
	c0-0.1,0-0.1-0.1-0.2c-0.1-0.2-0.2-0.4-0.3-0.6c0-0.1-0.1-0.1-0.1-0.2l0,0c0,0,0,0,0-0.1l0,0c0,0,0-0.1-0.1-0.1
	c0-0.1-0.1-0.2-0.2-0.3c0,0,0,0,0-0.1l0,0c-0.1-0.1-0.1-0.2-0.2-0.3l0,0c0,0,0,0,0-0.1l0,0c0,0-0.1-0.1-0.1-0.1c0,0,0,0-0.1-0.1
	c-0.1-0.1-0.1-0.1-0.2-0.2l0,0c0,0-0.1-0.1-0.1-0.1c-0.1-0.1-0.1-0.1-0.2-0.2l0,0l-0.1-0.1c0,0,0,0-0.1-0.1
	c-0.1-0.1-0.1-0.1-0.2-0.2c0,0-0.1,0-0.1-0.1c0,0,0,0,0,0c-0.1-0.1-0.2-0.2-0.4-0.3c-0.2-0.1-0.3-0.2-0.5-0.4c0,0.1,0,0.2,0.1,0.3
	c0,0,0,0.1,0,0.2l0,0c0,0.2,0.1,0.5,0.1,0.7l0,0c0,0,0,0.1,0,0.1c0,0.3,0.1,0.5,0.1,0.8c0,0.1,0,0.1,0,0.2c0,0.3,0.1,0.6,0.1,0.8
	c0,0.2,0,0.3,0,0.5l0,0.1l0,0v0c0,0.1,0,0.2,0,0.3l0,0.1l0,0.1c0,0.1,0,0.2,0,0.4l0,0.1l0,0.1c0,0.1,0,0.3,0,0.4l0,0.1l0,0.1
	c0,0.1,0,0.3,0,0.4l0,0.1l0,0c0,0.2,0,0.3,0,0.5l0,0.1V80c0,0.2,0,0.4,0,0.7v0l0,0.1c0,0.2,0,0.4,0,0.6c0,0.2,0,0.3,0,0.5v0.1v0.1
	c0,0.2,0,0.4,0,0.6v0.1l0,0.1c0,0.1,0,0.3,0,0.4v0.1l0,0.1c0,0.1,0,0.3,0,0.4v0.1l0,0.1v0.4v0l0,0.2v0.3v0.1v0.1v0.2
	c0,0.2,0,0.5,0,0.7l0,18.5c0,0.3-0.1,0.6-0.2,0.9c0.5,0.2,1.1,0.5,1.8,0.9c0.7,0.3,1.4,0.7,2.2,1l0-5.6c0,0,0-0.1,0-0.1
	c0,0,0-0.1,0-0.1l0-10.2v-0.7v-0.1V90.5z M361.7,77.8L361.7,77.8L361.7,77.8z M366.6,90.2L366.6,90.2c0-0.2,0-0.5,0-0.7
	c0,0,0,0,0-0.1l0-0.1c0-0.2,0-0.4-0.1-0.5c0-0.1,0-0.1,0-0.2c0-0.2,0-0.4-0.1-0.6c0,0,0-0.1,0-0.1l0,0c0-0.2-0.1-0.4-0.1-0.7
	c0,0,0,0,0-0.1c0,0,0,0,0,0c0,0,0-0.1,0-0.1c0-0.2-0.1-0.3-0.1-0.4c0-0.1,0-0.2-0.1-0.2c0-0.1-0.1-0.3-0.1-0.4l0-0.1
	c0,0,0-0.1,0-0.1c0-0.2-0.1-0.3-0.1-0.5c0,0,0-0.1,0-0.1l0,0c-0.1-0.2-0.1-0.4-0.2-0.6c0,0,0-0.1,0-0.1l0-0.1
	c-0.1-0.2-0.1-0.3-0.2-0.5c0-0.1-0.1-0.1-0.1-0.2l0,0c-0.1-0.1-0.1-0.3-0.2-0.4c0-0.1-0.1-0.2-0.1-0.2c-0.1-0.1-0.1-0.3-0.2-0.4
	l0-0.1c0,0,0-0.1-0.1-0.1c-0.1-0.2-0.2-0.5-0.3-0.7c-0.1-0.2-0.2-0.4-0.4-0.7c0,0,0,0,0,0c0,0,0-0.1,0-0.1v0l0,0c0,0,0-0.1-0.1-0.1
	c-0.1-0.3-0.3-0.5-0.4-0.7c0,0,0,0,0,0l0,0l0,0c-0.1-0.2-0.3-0.4-0.4-0.7c0-0.1-0.1-0.1-0.1-0.2c-0.2-0.3-0.3-0.5-0.5-0.7
	c0,0,0,0,0,0l0,0c-0.1-0.2-0.3-0.4-0.5-0.6c0,0,0-0.1-0.1-0.1v0l0,0c0,0,0,0-0.1-0.1c0,0,0,0,0,0c0,0,0,0,0,0
	c-0.1-0.1-0.1-0.2-0.2-0.2c-0.1-0.1-0.1-0.1-0.2-0.2c-0.1-0.1-0.1-0.1-0.2-0.2c0,0.1,0.1,0.2,0.1,0.2c0.1,0.2,0.1,0.4,0.2,0.5l0,0.1
	c0,0,0,0.1,0.1,0.1c0.1,0.3,0.2,0.5,0.2,0.7c0,0,0,0.1,0,0.1l0,0c0.1,0.2,0.1,0.4,0.2,0.6c0,0.1,0,0.2,0.1,0.2l0,0
	c0,0.2,0.1,0.3,0.1,0.5c0,0.1,0,0.2,0.1,0.3c0,0.2,0.1,0.3,0.1,0.5l0,0.1c0,0.1,0,0.1,0,0.2c0.1,0.3,0.1,0.5,0.1,0.8v0
	c0,0,0,0.1,0,0.1l0,0c0,0,0,0,0,0c0,0.2,0.1,0.5,0.1,0.7c0,0.1,0,0.1,0,0.2l0,0c0,0.2,0,0.4,0.1,0.7l0,0.1c0,0,0,0.1,0,0.1
	c0,0.3,0,0.5,0,0.8c0,0.2,0,0.4,0,0.6c0,0.2,0,0.4,0,0.7v0c0,0.1,0,0.1,0,0.2l0,0.1l0,0c0,0.1,0,0.3,0,0.4c0,0.1,0,0.1,0,0.2l0,0.1
	l0,0c0,0.1,0,0.2,0,0.3c0,0.1,0,0.1,0,0.2l0,0.1l0,0.1c0,0.1,0,0.2,0,0.3c0,0.2-0.1,0.5-0.1,0.7c0,0,0,0,0,0.1v0
	c0,0.2-0.1,0.4-0.1,0.6c0,0.1,0,0.1,0,0.2l0,0.1l0,0c0,0.1-0.1,0.3-0.1,0.4c0,0.1,0,0.1,0,0.2l0,0.1c0,0.1-0.1,0.3-0.1,0.4
	c0,0.1,0,0.1,0,0.2l0,0.1c0,0,0,0,0,0c0,0.1-0.1,0.3-0.1,0.4c0,0.1-0.1,0.2-0.1,0.3c0,0.1-0.1,0.3-0.1,0.4c0,0.1-0.1,0.2-0.1,0.3
	c0,0,0,0,0,0c0,0.1-0.1,0.3-0.2,0.4l0,0c0,0.1-0.1,0.1-0.1,0.2c-0.1,0.1-0.1,0.3-0.2,0.4c0,0,0,0,0,0l0,0.1c0,0.1,0,0.1-0.1,0.2
	c0,0,0,0.1-0.1,0.1l0,0c-0.1,0.1-0.1,0.2-0.2,0.4c0,0.1-0.1,0.1-0.1,0.2c-0.1,0.1-0.1,0.2-0.2,0.4l0,0.1c0,0,0,0.1-0.1,0.1
	c-0.1,0.2-0.2,0.4-0.3,0.5c-0.1,0.2-0.2,0.4-0.4,0.6c0,0.1-0.1,0.1-0.1,0.2c-0.1,0.2-0.2,0.3-0.3,0.5l0,0.1c0,0,0,0.1-0.1,0.1
	c-0.1,0.2-0.3,0.4-0.4,0.6c0,0,0,0,0,0l0,0l0,0c-0.1,0.2-0.2,0.3-0.3,0.5c0,0-0.1,0.1-0.1,0.1l0,0c-0.1,0.1-0.2,0.3-0.3,0.4l0,0
	l-0.1,0.1c-0.1,0.2-0.3,0.4-0.4,0.5c0,0,0,0,0,0l0,0l0,0c-0.1,0.1-0.2,0.3-0.3,0.4c0,0.1-0.1,0.1-0.1,0.2c-0.1,0.1-0.2,0.2-0.3,0.3
	l0,0c0,0-0.1,0.1-0.1,0.1c-0.1,0.2-0.3,0.3-0.4,0.5c0,0,0,0,0,0c0,0,0,0,0,0.1c0,0,0,0,0,0c-0.1,0.1-0.2,0.3-0.3,0.4
	c0,0-0.1,0.1-0.1,0.1l0,0c-0.1,0.1-0.2,0.2-0.3,0.3l0,0c0,0-0.1,0.1-0.1,0.1c-0.1,0.1-0.3,0.3-0.4,0.4c-1,1-1.9,1.8-2.6,2.4l4.8,2.9
	c0.6-0.5,1.4-1.3,2.5-2.4c0.1-0.1,0.2-0.2,0.3-0.3c0,0,0,0,0.1-0.1l0,0c0.1-0.1,0.2-0.2,0.2-0.3l0,0c0,0,0.1-0.1,0.1-0.1
	c0.1-0.1,0.2-0.2,0.3-0.3c0,0,0,0,0,0l0,0l0,0c0.1-0.1,0.2-0.2,0.3-0.4l0-0.1l0-0.1c0,0,0,0,0,0c0.1-0.1,0.2-0.2,0.2-0.3
	c0,0,0.1-0.1,0.1-0.1c0.1-0.1,0.2-0.3,0.3-0.4l0-0.1l0,0c0.1-0.1,0.2-0.3,0.3-0.5c0,0,0-0.1,0.1-0.1l0,0c0.1-0.1,0.2-0.2,0.3-0.4
	c0,0,0,0,0,0l0,0l0,0l0,0l0,0c0,0,0,0,0,0c0.1-0.1,0.2-0.3,0.3-0.5c0,0,0,0,0,0l0,0l0,0c0.1-0.2,0.2-0.4,0.3-0.6l0-0.1l0.1-0.1
	c0.1-0.1,0.2-0.3,0.3-0.4l0-0.1l0.1-0.1c0.1-0.2,0.2-0.4,0.3-0.6c0.1-0.1,0.2-0.3,0.2-0.4c0,0,0-0.1,0-0.1l0-0.1
	c0-0.1,0.1-0.2,0.2-0.3c0,0,0-0.1,0.1-0.1l0,0c0-0.1,0.1-0.2,0.1-0.3l0-0.1c0,0,0,0,0-0.1l0-0.1c0,0,0,0,0,0c0,0,0-0.1,0-0.1
	c0,0,0,0,0,0c0-0.1,0.1-0.2,0.1-0.3c0,0,0-0.1,0.1-0.1l0-0.1c0-0.1,0.1-0.2,0.1-0.3c0-0.1,0.1-0.1,0.1-0.2c0-0.1,0.1-0.2,0.1-0.3
	c0-0.1,0-0.1,0.1-0.2c0-0.1,0.1-0.2,0.1-0.3c0,0,0-0.1,0-0.1c0,0,0,0,0,0v0c0,0,0-0.1,0-0.1c0-0.1,0.1-0.2,0.1-0.3l0-0.1
	c0,0,0-0.1,0-0.1c0-0.1,0.1-0.2,0.1-0.4l0-0.1c0,0,0-0.1,0-0.1c0-0.2,0.1-0.3,0.1-0.5c0,0,0,0,0,0c0-0.2,0.1-0.4,0.1-0.6
	c0,0,0,0,0,0c0-0.1,0-0.1,0-0.2l0-0.1l0-0.1c0-0.1,0-0.1,0-0.2c0-0.1,0-0.1,0-0.2l0-0.1c0,0,0-0.1,0-0.1c0,0,0-0.1,0-0.1
	c0-0.1,0-0.2,0-0.2l0-0.1l0-0.1c0,0,0-0.1,0-0.1c0-0.2,0-0.4,0-0.6C366.6,90.5,366.6,90.4,366.6,90.2L366.6,90.2z M378.8,104.7
	c0,0.1,0,0.2,0,0.3l3.8,2.1l0.1-36.8l-3.8-2.8L378.8,104.7z M345.3,70.3c-0.2,0-0.4,0-0.6,0c-2.3,0.1-4.7,0.9-7.3,2.5
	c-0.9,0.6-1.8,1.2-2.6,1.8c-0.3,0.2-0.7,0.4-1.1,0.4c-0.2,0-0.5-0.1-0.7-0.2c-0.2-0.1-0.4-0.3-0.6-0.4c-0.1,0.1-0.2,0.2-0.3,0.2
	c0.3,0.3,0.5,0.6,0.5,1c0,0.5-0.1,1-0.4,1.3c-0.6,0.6-1.1,1.3-1.7,2c-0.1,0.1-0.2,0.3-0.3,0.4c0,0,0,0,0,0.1l0,0.1l0,0.1
	c0,0.1-0.1,0.1-0.1,0.2l0,0c0,0,0,0,0,0c-0.1,0.2-0.2,0.3-0.3,0.5c0,0,0,0,0,0.1c0,0,0,0,0,0.1c-0.1,0.1-0.2,0.3-0.2,0.4
	c0,0.1-0.1,0.1-0.1,0.2c-0.1,0.1-0.1,0.2-0.2,0.3l0,0c0,0,0,0.1-0.1,0.1c-0.1,0.1-0.1,0.3-0.2,0.4c0,0,0,0,0,0c0,0,0,0.1,0,0.1v0
	c0,0,0,0,0,0c0,0,0,0,0,0.1c0,0.1-0.1,0.2-0.1,0.3c0,0,0,0.1,0,0.1l0,0.1c0,0,0,0,0,0l0,0c0,0.1-0.1,0.1-0.1,0.2c0,0,0,0.1,0,0.1
	l0,0c0,0.1,0,0.2-0.1,0.2c0,0.1,0,0.1,0,0.2c0,0,0,0.1,0,0.1l0,0c0,0,0,0,0,0.1l0,0.1c0,0,0,0.1,0,0.1c0,0.1-0.1,0.2-0.1,0.3
	c0,0,0,0,0,0c0,0.1,0,0.2-0.1,0.3c0,0,0,0,0,0.1l0,0c0,0,0,0.1,0,0.1c0,0,0,0,0,0c0,0,0,0.1,0,0.1c0,0.1,0,0.2,0,0.3
	c0,0,0,0.1,0,0.1c0,0,0,0,0,0.1c0,0.2,0,0.3,0,0.4l0,18.6c0,0.1,0,0.3-0.1,0.4l3.8,2l0-15.8c0-0.2,0-0.4,0-0.6c0,0,0-0.1,0-0.1l0,0
	c0-0.2,0-0.3,0-0.4c0-0.1,0-0.2,0-0.3l0,0c0,0,0-0.1,0-0.1c0-0.2,0.1-0.3,0.1-0.5v0c0,0,0,0,0,0v0v0c0,0,0,0,0,0
	c0-0.1,0.1-0.3,0.1-0.4c0,0,0-0.1,0-0.1l0,0c0-0.1,0.1-0.2,0.1-0.3c0-0.1,0-0.2,0.1-0.2c0-0.1,0.1-0.2,0.1-0.3l0,0
	c0-0.1,0-0.1,0.1-0.2c0-0.1,0.1-0.2,0.1-0.3l0,0c0-0.1,0-0.1,0.1-0.2c0.1-0.1,0.1-0.2,0.2-0.4l0,0c0,0,0-0.1,0-0.1c0,0,0,0,0,0
	c0,0,0-0.1,0-0.1l0,0c0.1-0.2,0.2-0.4,0.2-0.5c0-0.1,0.1-0.1,0.1-0.2l0,0c0.1-0.1,0.1-0.3,0.2-0.4l0,0c0-0.1,0.1-0.1,0.1-0.2
	c0.1-0.1,0.2-0.3,0.3-0.5l0,0c0,0,0-0.1,0.1-0.1c0.1-0.2,0.3-0.4,0.4-0.6c0.1-0.1,0.2-0.2,0.2-0.3l0-0.1c0,0,0.1-0.1,0.1-0.1
	c0.1-0.2,0.3-0.4,0.4-0.5c2.1-2.8,4.7-5.1,7.8-7c2.4-1.5,4.8-2.4,7.1-2.8l-1.3-1C347.7,70.7,346.6,70.4,345.3,70.3 M384.2,56.1
	l0,2.3c0,0.9-0.8,1.7-1.7,1.7l-54.2,0l0,10.6c0.2-0.2,0.4-0.4,0.7-0.7c0.9-0.9,1.9-1.8,3-2.6c0,0,0.1-0.1,0.1-0.1l0-3.6
	c0-0.9,0.8-1.7,1.7-1.7l54.2,0l0-3.1L384.2,56.1z M309.3,60.1l-0.2,44.1c0,0.4-0.1,0.7-0.3,1l4.1,1.8l0.2-43.2
	c0-0.9,0.8-1.7,1.7-1.7h2.8l0-1.5l-0.6-0.4L309.3,60.1z M239.9,69.5L239.9,69.5c-1.8,0-3.6,0.5-5.5,1.6c-1.3,0.7-2.5,1.6-3.6,2.7
	c-0.3,0.3-0.8,0.5-1.2,0.5c-0.2,0-0.4,0-0.7-0.1c-0.2-0.1-0.4-0.2-0.5-0.3c0,0,0,0,0,0c0.7,0.6,0.8,1.6,0.3,2.3l0,0
	c-0.1,0.1-0.1,0.1-0.2,0.2c0,0-0.1,0.1-0.1,0.1c0,0-0.1,0.1-0.1,0.1l-0.1,0.1c-0.1,0.1-0.1,0.2-0.2,0.3c0,0,0,0,0,0.1l-0.1,0.1l0,0
	l0,0.1c-0.2,0.2-0.3,0.5-0.5,0.7c0,0,0,0.1,0,0.1l0,0c-0.2,0.3-0.3,0.5-0.4,0.8l0,0l0,0.1c-0.2,0.3-0.3,0.6-0.4,0.8c0,0,0,0,0,0l0,0
	l0,0c-0.2,0.3-0.3,0.6-0.4,0.9c-0.1,0.2-0.2,0.4-0.3,0.6l0,0.1c0,0.1,0,0.1-0.1,0.2c0,0,0,0.1-0.1,0.1c-0.1,0.3-0.3,0.7-0.4,1
	c-0.1,0.3-0.2,0.5-0.3,0.8l0,0.1l0,0.1c-0.1,0.3-0.2,0.5-0.2,0.8c0,0,0,0,0,0.1c0,0,0,0.1,0,0.1v0c0,0,0,0,0,0v0
	c-0.1,0.3-0.1,0.5-0.2,0.8l0,0l0,0.1c-0.1,0.2-0.1,0.5-0.2,0.7l0,0.1l0,0c0,0,0,0,0,0c0,0.3-0.1,0.5-0.1,0.8l0,0l0,0.1
	c0,0.3-0.1,0.5-0.1,0.8v0c0,0,0,0,0,0v0l0,0.1c0,0,0,0,0,0c0,0.2,0,0.4-0.1,0.6l0,0.1c0,0,0,0.1,0,0.1c0,0.3,0,0.5-0.1,0.7v0l0,0
	v0.1c0,0.2,0,0.4,0,0.6c0,0.1,0,0.1,0,0.2c0,0.3,0,0.5,0,0.7l0,13.6c0,0.2,0,0.3-0.1,0.5l3.8,2l0-10.9c0-0.2,0-0.5,0-0.8
	c0-0.1,0-0.1,0-0.2c0-0.3,0-0.5,0-0.7v0v0l0-0.1c0-0.3,0-0.5,0.1-0.8c0,0,0-0.1,0-0.1l0-0.1c0-0.2,0-0.5,0.1-0.7v0l0-0.1l0-0.1
	c0-0.3,0.1-0.6,0.1-0.9c0-0.1,0-0.1,0-0.2c0-0.3,0.1-0.6,0.2-0.9l0-0.1l0,0c0.1-0.3,0.1-0.6,0.2-0.9l0,0c0,0,0-0.1,0-0.1
	c0.1-0.3,0.1-0.6,0.2-0.9c0-0.1,0-0.1,0-0.2c0.1-0.3,0.2-0.6,0.3-0.9c0,0,0-0.1,0-0.1l0,0c0.1-0.4,0.2-0.7,0.3-1
	c0.1-0.4,0.3-0.8,0.4-1.2c0-0.1,0.1-0.2,0.1-0.3c0,0,0-0.1,0.1-0.1l0-0.1c0.1-0.2,0.2-0.4,0.2-0.6c0.1-0.3,0.3-0.7,0.5-1l0,0
	c0,0,0,0,0-0.1c0.1-0.3,0.3-0.6,0.5-0.9l0,0c0,0,0-0.1,0-0.1c0.2-0.3,0.3-0.6,0.5-0.9l0,0c0,0,0-0.1,0.1-0.1
	c0.2-0.3,0.3-0.6,0.5-0.8l0,0l0.1-0.1c0.1-0.2,0.3-0.4,0.4-0.6c0,0,0-0.1,0.1-0.1c0-0.1,0.1-0.1,0.1-0.2c0.2-0.3,0.4-0.6,0.6-0.8
	c1.8-2.3,4-4.2,6.3-5.5c2.2-1.2,4.4-1.9,6.5-2l-0.5-0.4C244.4,70,242.4,69.5,239.9,69.5 M262,85.6L262,85.6L262,85.6z M298.9,96.6
	c-2.1,2.5-4.2,4.6-6.2,6c-2.4,1.7-5.1,2.7-8,2.8c2.4,1.3,4.6,1.9,6.5,1.9c2.5,0,4.7-0.7,6.7-2.2c1.1-0.8,2.3-1.8,3.4-3
	c0.1-0.1,0.3-0.2,0.4-0.3l-2.8-1.2L298.9,96.6z M262.6,90c0-0.1,0-0.1,0-0.2l0-0.1l0-0.1c0,0,0-0.1,0-0.1c0-0.1,0-0.3,0-0.4l0-0.1v0
	c0-0.2,0-0.3,0-0.5l0,0c0,0,0-0.1,0-0.1v0c0-0.1,0-0.2,0-0.4c0,0,0-0.1,0-0.1l0-0.1c0-0.1,0-0.2,0-0.3c0,0,0-0.1,0-0.1l0-0.1
	c0-0.1,0-0.2,0-0.2c0-0.1,0-0.1,0-0.1l0-0.1c0-0.1,0-0.2,0-0.3c0-0.1,0-0.1,0-0.2l0-0.1c0,0,0,0,0-0.1l0,0c0,0,0-0.1,0-0.1
	c0,0,0,0,0,0c0,0,0,0,0,0v0c0-0.1,0-0.1,0-0.2c0-0.1,0-0.2-0.1-0.3c0-0.1,0-0.1,0-0.2v0c0-0.1,0-0.2-0.1-0.3c0-0.1,0-0.1,0-0.2
	c0-0.1-0.1-0.2-0.1-0.3l0,0c0-0.1,0-0.1,0-0.2c0-0.1,0-0.2-0.1-0.2l0,0l0,0c0,0,0-0.1,0-0.1c0-0.1-0.1-0.2-0.1-0.3l0,0l0-0.1
	c0,0,0-0.1,0-0.1c0-0.1-0.1-0.2-0.1-0.3l0,0l0-0.1c0,0,0,0,0-0.1c-0.1-0.2-0.1-0.3-0.2-0.4c-0.1-0.2-0.2-0.5-0.3-0.8
	c0-0.1-0.1-0.1-0.1-0.2l0,0c-0.1-0.2-0.2-0.4-0.3-0.6l0-0.1c0,0,0,0,0-0.1c-0.1-0.2-0.2-0.4-0.3-0.6c0,0,0-0.1,0-0.1
	c0-0.1-0.1-0.2-0.1-0.2l-0.1-0.1l0-0.1c-0.1-0.1-0.1-0.3-0.2-0.4c-0.1-0.1-0.1-0.2-0.2-0.3l-0.1-0.1l0-0.1c-0.1-0.1-0.2-0.2-0.2-0.3
	c-0.1-0.1-0.1-0.2-0.2-0.3l0-0.1c-0.1-0.1-0.2-0.3-0.3-0.4c-0.1-0.1-0.1-0.2-0.2-0.3l0-0.1c0,0-0.1-0.1-0.1-0.1c0,0-0.1-0.1-0.1-0.1
	c0,0,0,0-0.1-0.1c0,0-0.1-0.1-0.1-0.1c0,0-0.1-0.1-0.1-0.1c-0.2-0.2-0.4-0.4-0.5-0.6c0,0,0,0.1,0.1,0.1c0,0,0,0.1,0,0.1l0,0.1l0,0
	c0,0.1,0.1,0.2,0.1,0.3c0,0.1,0,0.1,0.1,0.2l0,0.1l0,0c0,0.1,0.1,0.2,0.1,0.3c0,0.1,0,0.1,0.1,0.2l0,0.1l0,0.1c0,0.1,0,0.2,0.1,0.2
	c0,0.1,0,0.2,0.1,0.2c0,0.1,0.1,0.2,0.1,0.3c0,0.1,0,0.2,0.1,0.2c0,0.1,0,0.2,0.1,0.3c0,0.1,0,0.2,0.1,0.2c0,0.1,0,0.2,0.1,0.3
	c0,0.1,0,0.2,0,0.2c0,0.1,0,0.2,0.1,0.3c0,0.1,0,0.2,0,0.2c0,0.1,0,0.2,0.1,0.3v0c0,0.1,0,0.2,0,0.2c0,0.1,0,0.2,0,0.3l0,0.1
	c0,0.1,0,0.1,0,0.2c0,0.1,0,0.2,0,0.3l0,0l0,0.1c0,0,0,0.1,0,0.1c0,0.1,0,0.3,0,0.4l0,0c0,0,0,0.1,0,0.1c0,0.2,0,0.4,0,0.6
	c0,0,0,0.1,0,0.1v0c0,0.2,0,0.3,0,0.5c0,0,0,0.1,0,0.1l0,0.1c0,0.1,0,0.2,0,0.4c0,0.2,0,0.4,0,0.6c0,0.2,0,0.5,0,0.7
	c0,0.1,0,0.1,0,0.2l0,0.1c0,0.2,0,0.3,0,0.5c0,0.1,0,0.1,0,0.2l0,0.1c0,0.1,0,0.3,0,0.4c0,0.1,0,0.2,0,0.3c0,0.1,0,0.3,0,0.4
	c0,0.1,0,0.2,0,0.3c0,0.3-0.1,0.6-0.1,0.8v0c0,0.3-0.1,0.5-0.2,0.9c0,0.1,0,0.1,0,0.2l0,0c0,0.2-0.1,0.5-0.2,0.7l0,0.1
	c0,0,0,0.1,0,0.1c-0.1,0.3-0.1,0.6-0.2,0.9c0,0,0,0.1,0,0.1l0,0.1c-0.1,0.2-0.1,0.5-0.2,0.7l0,0.1c0,0,0,0.1,0,0.1
	c-0.1,0.3-0.2,0.6-0.3,0.9c0,0,0,0.1,0,0.1l0,0c-0.1,0.2-0.2,0.5-0.3,0.8c0,0.1-0.1,0.1-0.1,0.2c-0.1,0.3-0.2,0.6-0.4,0.9
	c-0.1,0.2-0.2,0.4-0.3,0.6c0,0.1-0.1,0.2-0.1,0.2l0,0c-0.1,0.1-0.1,0.3-0.2,0.4c0,0.1-0.1,0.2-0.1,0.3c-0.1,0.1-0.1,0.2-0.2,0.4
	c0,0.1-0.1,0.2-0.1,0.3c-0.1,0.1-0.1,0.3-0.2,0.4c-0.1,0.1-0.1,0.2-0.2,0.3c-0.1,0.1-0.1,0.2-0.2,0.4c-0.1,0.1-0.1,0.2-0.2,0.3
	c-0.1,0.1-0.1,0.3-0.2,0.4l-0.1,0.1c0,0.1-0.1,0.1-0.1,0.2c-0.1,0.1-0.2,0.3-0.2,0.4l0,0.1c0,0.1-0.1,0.1-0.1,0.2
	c-0.1,0.1-0.2,0.3-0.3,0.5l0,0.1c0,0-0.1,0.1-0.1,0.1c-0.1,0.1-0.1,0.2-0.2,0.3l-0.1,0.1l-0.1,0.1c-0.1,0.1-0.1,0.1-0.2,0.2
	c-0.1,0.1-0.1,0.2-0.2,0.3l-0.1,0.1l-0.1,0.1c-0.1,0.1-0.1,0.1-0.2,0.2c-0.1,0.1-0.1,0.2-0.2,0.3l-0.1,0.1l-0.1,0.1
	c0,0.1-0.1,0.1-0.2,0.2c-0.1,0.1-0.1,0.2-0.2,0.3l-0.1,0.1l-0.1,0.1c-0.1,0.1-0.1,0.1-0.2,0.2c-0.1,0.1-0.2,0.2-0.2,0.3l-0.1,0.1
	l-0.1,0.1c-0.1,0.1-0.1,0.1-0.2,0.2c-0.1,0.1-0.2,0.2-0.3,0.3l-0.1,0.1l-0.1,0.1c0,0.1-0.1,0.1-0.1,0.2c-0.1,0.1-0.2,0.2-0.3,0.3
	l4.7,3c0.1-0.1,0.1-0.1,0.2-0.2c0-0.1,0.1-0.1,0.1-0.2l0.1-0.1l0.1-0.1c0.1-0.1,0.1-0.2,0.2-0.3c0-0.1,0.1-0.1,0.1-0.2l0.1-0.1
	l0.1-0.1c0.1-0.1,0.1-0.2,0.2-0.3c0,0,0.1-0.1,0.1-0.1l0.1-0.1l0.1-0.1c0.1-0.1,0.1-0.2,0.2-0.2c0-0.1,0.1-0.1,0.1-0.2l0.1-0.1
	l0.1-0.1c0.1-0.1,0.1-0.2,0.2-0.3c0,0,0.1-0.1,0.1-0.1l0.1-0.1l0.1-0.1c0.1-0.1,0.1-0.2,0.2-0.3c0,0,0.1-0.1,0.1-0.1l0.1-0.1
	l0.1-0.1c0.1-0.1,0.1-0.2,0.2-0.3c0,0,0,0,0,0c0,0,0,0,0,0c0,0,0,0,0-0.1c0,0,0-0.1,0.1-0.1c0.1-0.1,0.2-0.3,0.3-0.4
	c0,0,0-0.1,0.1-0.1l0.1-0.1c0.1-0.1,0.2-0.3,0.2-0.4c0-0.1,0.1-0.1,0.1-0.2l0-0.1c0.1-0.1,0.1-0.2,0.2-0.4c0-0.1,0.1-0.2,0.1-0.2
	c0.1-0.1,0.1-0.2,0.2-0.3c0-0.1,0.1-0.2,0.1-0.3c0.1-0.1,0.1-0.2,0.2-0.3c0-0.1,0.1-0.2,0.1-0.3c0.1-0.1,0.1-0.2,0.2-0.3
	c0-0.1,0.1-0.2,0.1-0.3c0-0.1,0.1-0.2,0.2-0.3l0,0c0-0.1,0.1-0.2,0.1-0.2c0,0,0,0,0-0.1l0,0c0.1-0.1,0.1-0.3,0.2-0.4
	c0.1-0.2,0.2-0.5,0.3-0.8c0-0.1,0-0.1,0.1-0.2l0-0.1c0.1-0.2,0.2-0.4,0.2-0.7c0,0,0,0,0-0.1l0,0c0.1-0.3,0.2-0.5,0.3-0.8
	c0-0.1,0-0.1,0-0.2l0,0c0.1-0.2,0.1-0.4,0.2-0.6c0,0,0-0.1,0-0.1l0,0c0,0,0,0,0-0.1c0.1-0.3,0.1-0.5,0.2-0.7c0,0,0-0.1,0-0.1l0-0.1
	c0-0.2,0.1-0.4,0.1-0.6c0-0.1,0-0.1,0-0.2c0.1-0.3,0.1-0.5,0.1-0.7v0c0-0.2,0.1-0.5,0.1-0.7v0c0,0,0,0,0-0.1l0,0v0v0c0,0,0,0,0-0.1
	c0,0,0-0.1,0-0.1c0-0.1,0-0.3,0-0.4c0-0.1,0-0.2,0-0.2c0-0.1,0-0.3,0-0.4l0-0.1c0-0.1,0-0.1,0-0.2c0-0.1,0-0.3,0-0.4l0-0.1
	c0,0,0-0.1,0-0.1c0-0.2,0-0.4,0-0.6C262.6,90.4,262.6,90.2,262.6,90L262.6,90z M262,85.6C262,85.6,262,85.6,262,85.6L262,85.6
	L262,85.6z M160.2,99.9c-0.1-0.1-0.2-0.1-0.3-0.2c-0.9-0.6-2-0.9-3.4-0.9c-1,0-2.8,0.3-6.1,1.6c-2.9,1.1-5.9,2.3-8.7,3.4
	c-2,0.8-3.8,1.3-5.2,1.6c0.2,0.1,0.4,0.3,0.6,0.4c2.3,1.5,3.7,1.8,4.5,1.8c1,0,2.8-0.3,6.1-1.6c2.8-1.1,5.6-2.2,8.7-3.4
	c2-0.8,3.8-1.3,5.2-1.6L160.2,99.9z M195.9,86.8c0.3,0,0.6,0,0.9,0c-0.4-0.2-1-0.4-1.7-0.6c-3.8-1.1-5.5-1.4-6.3-1.4h0
	c-3.1,0-6,0.7-8.5,2c-2.6,1.3-4.6,2.9-6.1,4.6c-0.1,0.1-0.2,0.2-0.3,0.4c0,0,0,0-0.1,0.1l0,0c0,0,0,0,0,0c-0.1,0.1-0.1,0.2-0.2,0.2
	c0,0,0,0.1-0.1,0.1l0,0c0,0.1-0.1,0.1-0.1,0.2c0,0-0.1,0.1-0.1,0.1c0,0.1-0.1,0.1-0.1,0.2c0,0,0,0,0,0c0,0,0,0-0.1,0.1v0
	c0,0,0,0,0,0c0,0,0,0,0,0c0,0.1-0.1,0.1-0.1,0.2c0,0,0,0,0,0l0,0l0,0c-0.1,0.1-0.1,0.2-0.2,0.3c0,0,0,0,0,0.1c0,0.1-0.1,0.1-0.1,0.2
	c0,0,0,0,0,0l0,0c0,0.1,0,0.1-0.1,0.2c0,0,0,0,0,0c0,0,0,0,0,0c0,0.1-0.1,0.1-0.1,0.2c0,0,0,0,0,0c0,0,0,0,0,0.1
	c0,0.1,0,0.1-0.1,0.2c0,0,0,0,0,0c0,0,0,0,0,0c0,0,0,0.1,0,0.1c0,0,0,0,0,0l0,0v0c0,0,0,0.1,0,0.1c0,0,0,0,0,0c0,0,0,0,0,0
	c0,0,0,0,0,0c0,0,0,0.1,0.1,0.1l0,0c0,0,0,0,0,0c0,0,0,0.1,0.1,0.1c0,0,0,0,0,0c0,0,0,0,0,0l0,0l0,0c0,0,0,0,0,0c0,0,0,0,0.1,0.1
	l0,0l0,0c0,0,0,0,0.1,0.1h0l0,0l0,0c0,0,0.1,0.1,0.1,0.1l3.5,2.6c0-0.1,0-0.1,0.1-0.2l0,0c0,0,0-0.1,0.1-0.1c0-0.1,0.1-0.2,0.1-0.3
	l0,0c0,0,0-0.1,0.1-0.1c0.1-0.1,0.1-0.2,0.2-0.3c0,0,0,0,0,0l0,0c0,0,0,0,0-0.1c0,0,0,0,0,0c0.1-0.1,0.1-0.3,0.2-0.4
	c0,0,0-0.1,0.1-0.1l0,0c0.1-0.1,0.1-0.2,0.2-0.3c0,0,0.1-0.1,0.1-0.1l0,0c0.1-0.1,0.1-0.2,0.2-0.3c0-0.1,0.1-0.1,0.1-0.2
	c0.1-0.1,0.1-0.2,0.2-0.2c0-0.1,0.1-0.1,0.1-0.2c0.1-0.1,0.1-0.2,0.2-0.3l0,0c0,0,0-0.1,0.1-0.1c0.1-0.1,0.2-0.3,0.3-0.4
	c1.7-2,4.1-3.9,7.1-5.4C188.8,87.6,192.2,86.8,195.9,86.8 M181.7,65.2l0.9,0.7c0,0,0,0,0.1,0c0.9-0.2,1.8-0.5,2.8-0.7v-1.3
	c0-0.9,0.8-1.7,1.7-1.7L299,62.1l0-1.5l-0.6-0.4l-116.7,0.1l0,2.9c0,0.1,0,0.3,0,0.4c0,0.1,0,0.2,0,0.4L181.7,65.2z M185.9,76.8
	c1.5-0.5,3-1,4.3-1.3c1.9-0.4,4.4-0.7,7.6-0.8l-0.9-0.7c-0.3-0.2-0.5-0.4-0.8-0.5c-0.7-0.3-2-0.7-4.8-0.7c-1.4,0.1-2.7,0.1-3.9,0.3
	c0,0,0,0,0,0c-1.4,0.1-2.6,0.3-3.5,0.5c-1.8,0.4-3.7,1-5.8,1.9c-0.9,0.4-1.8,0.7-2.6,1l3.3,2.4C180.9,77.8,183.3,77.1,185.9,76.8
	 M127.6,95C127.6,95,127.6,95,127.6,95C127.6,95,127.6,95,127.6,95 M152.3,66.5c0,0,0,0.1,0,0.1v0c0,0,0,0,0,0c0,0,0,0.1,0,0.1l0,0
	l0,0c0,0.1,0,0.1,0,0.2c0,0,0,0,0,0l0,0l0,0c0,0,0,0,0,0c0,0.1,0,0.1,0,0.2c0,0,0,0,0,0l0,0c0,0,0,0,0,0c0,0.1,0,0.2,0,0.2
	c0,0,0,0,0,0c0,0,0,0,0,0c0,0,0,0,0,0c0,0,0,0,0,0l0,0l0,0l0.7,0.5c0.1-0.1,0.3-0.3,0.4-0.5c0.7-0.9,1.4-1.6,1.9-2.2
	c0.2-0.1,0.3-0.3,0.6-0.4v-1.3c0-0.9,0.8-1.7,1.7-1.7l16.1,0l0-1.5l-0.5-0.4l-21,0L152.3,66.5L152.3,66.5
	C152.3,66.4,152.3,66.4,152.3,66.5L152.3,66.5z M288.8,66.9C288.8,66.9,288.8,66.9,288.8,66.9C288.8,66.9,288.8,66.9,288.8,66.9
	 M291.7,74.9c-1.8-1.3-3.9-2-6.3-2h0c-0.5,0-1.8,0.2-5,1.7c-2.4,1.1-4.7,2.9-6.7,5.1c-0.1,0.1-0.2,0.2-0.3,0.4c0,0,0,0-0.1,0.1
	l0,0.1c-0.1,0.1-0.1,0.2-0.2,0.3c0,0-0.1,0.1-0.1,0.1c-0.1,0.1-0.1,0.2-0.2,0.3l0,0.1c0,0,0,0,0,0c0,0,0,0,0,0
	c0,0.1-0.1,0.1-0.1,0.2l0,0.1c0,0,0,0.1-0.1,0.1c0,0,0,0,0,0.1c-0.1,0.1-0.2,0.3-0.2,0.4c0,0,0,0.1,0,0.1c-0.1,0.1-0.1,0.3-0.2,0.4
	c0,0,0,0,0,0.1c0,0,0,0.1,0,0.1l0,0.1c0,0.1,0,0.1-0.1,0.2c0,0,0,0,0,0c0,0,0,0,0,0l0,0.1c0,0.1-0.1,0.2-0.1,0.3
	c0,0.1,0,0.1-0.1,0.1c0,0.1-0.1,0.2-0.1,0.3l0,0.1c0,0,0,0,0,0.1c-0.1,0.2-0.1,0.3-0.1,0.4c0,0,0,0,0,0c0,0.1-0.1,0.3-0.1,0.4
	c0,0,0,0.1,0,0.1l0,0c0,0.1,0,0.2-0.1,0.3c0,0,0,0.1,0,0.2c0,0.1,0,0.2-0.1,0.4c0,0,0,0.1,0,0.1l0,0c0,0,0,0,0,0c0,0.1,0,0.3,0,0.4
	c0,0,0,0,0,0.1l0,0c0,0.1,0,0.3,0,0.4c0,0.1,0,0.1,0,0.1c0,0.2,0,0.4,0,0.5c0,0.1,0,0.2,0,0.4c0,0,0,0.1,0,0.1c0,0.1,0,0.2,0,0.3
	l0,0.1c0,0,0,0.1,0,0.1c0,0.1,0,0.2,0,0.3v0c0,0,0,0.1,0,0.1c0,0,0,0.1,0,0.1c0,0.1,0,0.3,0.1,0.4c0,0,0,0.1,0,0.1l0,0
	c0,0.2,0.1,0.3,0.1,0.5c0,0,0,0,0,0c0,0.1,0.1,0.2,0.1,0.4c0,0,0,0,0,0l0,0.1c0,0.1,0,0.2,0.1,0.3c0,0,0,0.1,0,0.1l0,0
	c0,0.1,0.1,0.2,0.1,0.3l0,0c0,0,0,0.1,0,0.1c0,0.1,0.1,0.2,0.1,0.3l0,0.1c0,0,0,0,0,0c0,0.1,0.1,0.2,0.2,0.4l0,0c0,0,0,0,0,0.1
	c0,0.1,0.1,0.2,0.1,0.3c0,0,0,0.1,0,0.1l0,0l0,0.1c0,0,0,0,0,0.1l0,0c0,0,0,0,0,0.1c0,0.1,0.1,0.1,0.1,0.1c0,0.1,0.1,0.1,0.1,0.2
	c0,0,0.1,0.1,0.1,0.1c0,0.1,0.1,0.1,0.1,0.2l0,0c0,0,0,0.1,0.1,0.1c0.1,0.1,0.1,0.1,0.2,0.2l0,0.1c0,0,0,0,0,0.1c0,0,0,0,0,0
	c0.1,0.1,0.1,0.2,0.2,0.3c0.4,0.5,0.9,0.9,1.4,1.3l0.4,0.3c0-0.1-0.1-0.3-0.1-0.4c0,0,0-0.1,0-0.1l0,0c0-0.2,0-0.4-0.1-0.5
	c0-0.1,0-0.1,0-0.2l0-0.1c0-0.1,0-0.3,0-0.4c0-0.1,0-0.1,0-0.2l0-0.1c0-0.1,0-0.3,0-0.4c0-0.2,0-0.4,0-0.6c0-0.2,0-0.4,0-0.6
	c0,0,0-0.1,0-0.1v0c0-0.2,0-0.3,0-0.5l0-0.1c0,0,0-0.1,0-0.1c0-0.2,0-0.4,0.1-0.6c0,0,0-0.1,0-0.1l0,0c0-0.2,0-0.3,0.1-0.5
	c0-0.1,0-0.1,0-0.2c0-0.1,0.1-0.3,0.1-0.4l0,0c0-0.1,0-0.1,0-0.2c0-0.2,0.1-0.4,0.1-0.5c0,0,0,0,0,0c0-0.2,0.1-0.4,0.2-0.6
	c0,0,0-0.1,0-0.1l0,0c0-0.1,0.1-0.3,0.1-0.4c0-0.1,0-0.1,0.1-0.2c0-0.1,0.1-0.3,0.2-0.4l0,0c0,0,0-0.1,0-0.1
	c0.1-0.1,0.1-0.2,0.2-0.4l0,0l0,0c0,0,0-0.1,0.1-0.1c0.1-0.2,0.2-0.3,0.3-0.5c0,0,0-0.1,0-0.1v0c0.1-0.2,0.2-0.4,0.3-0.6
	c0,0,0.1-0.1,0.1-0.1l0,0l0,0c0.1-0.1,0.1-0.2,0.2-0.3c0,0,0-0.1,0.1-0.1l0,0c0.1-0.1,0.2-0.3,0.3-0.4c0-0.1,0.1-0.1,0.1-0.2
	c0.1-0.1,0.2-0.2,0.3-0.3l0,0c0,0,0-0.1,0.1-0.1c0.1-0.2,0.3-0.3,0.4-0.5c2.3-2.6,4.9-4.6,7.8-5.9C288.5,75.7,290.3,75,291.7,74.9
	 M288.8,66.9C288.9,67,288.9,67,288.8,66.9c0.1,0.1,0.2,0.1,0.2,0.2c0.1,0.1,0.3,0.2,0.4,0.3c1.3,1.1,2.8,2.5,4.5,4.2
	c1.5,1.5,3.2,3.3,5,5.3l0-2.1c-0.9-0.8-1.7-1.5-2.4-2.1c-0.2-0.2-0.4-0.3-0.6-0.5C293.6,70.5,291.2,68.7,288.8,66.9 M172.3,94.3
	L172.3,94.3C172.3,94.3,172.3,94.3,172.3,94.3L172.3,94.3z M160.1,78.8C160.1,78.8,160.1,78.8,160.1,78.8L160.1,78.8z M133.5,75.5
	c-0.1,0.1-0.2,0.2-0.3,0.4c0,0,0,0,0,0c0,0,0,0,0,0.1c0,0.1-0.1,0.2-0.2,0.2c0,0,0,0,0,0l0,0c0,0,0,0.1,0,0.1
	c-0.1,0.1-0.1,0.2-0.2,0.3c-0.1,0.1-0.1,0.2-0.2,0.3c0,0,0,0,0,0.1l0,0c0,0.1-0.1,0.2-0.1,0.2c0,0,0,0,0,0.1c0,0,0,0,0,0.1
	c0,0,0,0.1,0,0.1c0,0.1,0,0.1-0.1,0.2c0,0,0,0.1,0,0.1c0,0.1,0,0.1-0.1,0.2v0l0,0c0,0,0,0.1,0,0.1c0,0.1,0,0.1,0,0.2l0,0
	c0,0,0,0,0,0.1c0,0,0,0,0,0l0,0c0,0.1,0,0.1,0,0.2c0,0,0,0,0,0l0,0c0,0.1,0,0.1,0,0.2l0,0l0,0v0c0,0.1,0,0.1,0,0.2c0,0,0,0,0,0.1
	c0,0,0,0,0,0.1c0,0,0,0,0,0.1c0,0,0,0,0,0c0,0.1,0,0.1,0,0.2l0,0c0,0,0,0,0,0c0,0.1,0,0.2,0,0.3v0V80v0c0,0.1,0,0.1,0,0.2
	c0,0,0,0,0,0c0,0,0,0,0,0c0,0,0,0.1,0,0.2c0,0,0,0,0,0c0,0,0,0,0,0c0,0,0,0,0,0.1c0,0,0,0.1,0,0.1c0,0,0,0,0,0.1c0,0,0,0.1,0,0.1
	l0,0l0,0.1c0,0,0,0.1,0,0.1c0,0,0,0.1,0,0.1c0,0,0,0.1,0,0.1l0,0l0,0c0,0,0,0,0,0c0,0,0,0.1,0,0.1l0,0l0,0c0,0,0,0,0,0.1
	c0,0,0,0.1,0,0.1l0,0c0,0,0,0,0,0l0,0c0,0,0,0,0,0.1c0,0,0,0.1,0,0.1l0,0c0,0,0,0,0,0c0,0,0,0,0,0.1l0,0c0,0,0,0,0,0c0,0,0,0,0,0h0
	c0,0.1,0.1,0.1,0.1,0.2c0,0,0,0,0,0.1l0,0c0,0.1,0.1,0.1,0.1,0.2c0,0,0,0.1,0.1,0.1c0,0.1,0.1,0.1,0.1,0.2l0,0l0,0
	c0.1,0.1,0.1,0.2,0.2,0.3c0,0,0.1,0.1,0.1,0.1c0,0,0,0,0.1,0.1c0,0,0,0,0,0.1l0,0c0,0,0.1,0.1,0.1,0.1c0,0,0,0,0.1,0.1
	c0,0,0.1,0.1,0.1,0.1l0,0l0,0c0.1,0.1,0.1,0.1,0.2,0.2c0.6,0.5,1.2,1,1.7,1.6v0c0-0.1,0-0.3,0-0.5c0,0,0-0.1,0-0.1v0c0,0,0,0,0,0
	c0-0.1,0-0.2,0-0.3c0-0.1,0-0.1,0-0.2c0,0,0-0.1,0-0.1c0-0.1,0-0.2,0-0.3l0,0c0,0,0,0,0-0.1c0-0.1,0.1-0.3,0.1-0.4l0,0v0
	c0-0.1,0.1-0.2,0.1-0.3c0,0,0-0.1,0-0.1l0,0c0-0.1,0-0.2,0.1-0.2c0-0.1,0-0.1,0.1-0.2c0-0.1,0-0.1,0.1-0.2c0,0,0,0,0,0
	c0-0.1,0-0.1,0.1-0.2c0-0.1,0.1-0.1,0.1-0.2c0-0.1,0-0.1,0.1-0.2c0-0.1,0-0.1,0.1-0.2l0,0c0-0.1,0.1-0.2,0.2-0.3l0,0
	c0,0,0-0.1,0.1-0.1c0.1-0.2,0.2-0.3,0.2-0.5c0.1-0.1,0.2-0.3,0.3-0.5c0,0,0-0.1,0.1-0.1l0,0c0.1-0.1,0.1-0.2,0.2-0.3
	c0,0,0.1-0.1,0.1-0.1c0.1-0.2,0.2-0.3,0.3-0.5c1.5-2,3.4-3.7,5.8-5.1c1.7-1,3.5-1.6,5.4-1.9l-1.8-1.3c-0.7-0.5-1.7-0.8-3.1-0.8h0
	c-2,0-4,0.5-5.9,1.6C136.3,72.4,134.7,73.8,133.5,75.5 M59.4,93.7c0.1-0.1,0.2-0.1,0.3-0.2l0,0c0,0,0.1,0,0.1-0.1
	c0.2-0.1,0.4-0.2,0.5-0.2c2.5-1,5.3-1.7,8.4-1.8c2.2-0.1,4.3-0.2,6.2-0.3v-1.8l-3.8-2.8l0,1c0,0.9-0.7,1.7-1.6,1.7
	c-2.3,0.1-4.8,0.2-7.7,0.4c-2.7,0.2-5.2,0.7-7.3,1.6c-0.1,0-0.2,0.1-0.4,0.2c0,0,0,0,0,0c0,0,0,0-0.1,0l0,0c-0.1,0-0.1,0.1-0.2,0.1
	c0,0,0,0-0.1,0l-0.1,0l0,0c0,0-0.1,0.1-0.1,0.1c0,0,0,0-0.1,0l-0.1,0l0,0c0,0-0.1,0.1-0.1,0.1c0,0,0,0-0.1,0l0,0
	c0,0-0.1,0.1-0.1,0.1c0,0,0,0-0.1,0.1l0,0c0,0-0.1,0.1-0.1,0.1c0,0-0.1,0.1-0.1,0.1c0,0-0.1,0.1-0.1,0.1c0,0,0,0.1-0.1,0.1
	c0,0-0.1,0.1-0.1,0.1c0,0,0,0,0,0c0,0,0,0,0,0c0,0,0,0,0,0c0,0,0,0.1-0.1,0.1c0,0,0,0.1-0.1,0.1c0,0,0,0.1-0.1,0.1c0,0,0,0,0,0.1
	c0,0,0,0,0,0c0,0,0,0.1,0,0.1c0,0,0,0.1,0,0.1c0,0,0,0.1,0,0.1c0,0,0,0,0,0c0,0,0,0,0,0.1c0,0,0,0,0,0.1c0,0,0,0.1,0,0.1
	c0,0,0,0.1,0,0.1c0,0,0,0,0,0v0c0,0,0,0.1,0,0.1c0,0,0,0,0,0.1c0,0,0,0,0,0l0,0.1l0,0.1l0,0c0,0.1,0,0.2,0,0.3v0c0,0,0,0,0,0.1v0
	c0,0,0,0.1,0,0.2c0,0,0,0,0,0.1c0,0.1,0,0.1,0,0.2c0,0,0,0,0,0.1c0,0,0,0.1,0,0.1c0,0,0,0,0,0.1c0,0,0,0.1,0,0.1c0,0,0,0,0,0.1
	c0,0,0,0.1,0,0.1l0,0l0,0c0,0,0,0.1,0.1,0.1c0,0,0,0,0,0c0,0,0.1,0.1,0.1,0.2c0,0,0,0,0,0c0.1,0.1,0.1,0.1,0.1,0.2c0,0,0,0,0,0
	c0,0,0.1,0.1,0.1,0.2l0,0l0,0c0,0,0.1,0.1,0.1,0.1c0,0,0,0,0.1,0.1c0,0,0.1,0.1,0.1,0.1l0,0l0,0c0.1,0.1,0.1,0.1,0.2,0.2l2.5,1.8
	c0,0,0,0,0,0l0,0c0-0.1,0-0.2,0-0.3c0-0.1,0-0.1,0-0.2c0-0.1,0-0.2,0.1-0.3v0c0-0.1,0-0.1,0.1-0.2c0-0.1,0.1-0.2,0.1-0.3
	c0-0.1,0.1-0.1,0.1-0.2c0-0.1,0.1-0.1,0.1-0.2c0,0,0,0,0,0c0-0.1,0.1-0.2,0.1-0.2c0-0.1,0.1-0.1,0.1-0.2c0.1-0.1,0.1-0.2,0.1-0.2
	c0-0.1,0.1-0.1,0.1-0.2c0.1-0.1,0.1-0.2,0.2-0.2c0.1-0.1,0.1-0.1,0.2-0.2c0.1-0.1,0.1-0.1,0.2-0.2c0-0.1,0.1-0.1,0.2-0.2
	c0.1-0.1,0.1-0.1,0.2-0.2l0,0c0.1,0,0.1-0.1,0.2-0.1c0.1-0.1,0.2-0.1,0.2-0.2l0,0c0,0,0.1-0.1,0.2-0.1c0.1-0.1,0.2-0.1,0.3-0.2l0,0
	c0,0,0.1-0.1,0.2-0.1c0.1-0.1,0.2-0.1,0.3-0.2l0,0l0,0C59.3,93.8,59.4,93.8,59.4,93.7 M53.1,92L53.1,92L53.1,92
	C53.1,92,53.1,92,53.1,92 M167.3,79.7l3.2-3.7c0-0.1-0.1-0.1-0.1-0.2c0,0,0-0.1-0.1-0.1c0-0.1-0.1-0.1-0.1-0.2c0,0,0-0.1,0-0.1
	c0,0,0,0,0,0c0,0,0,0,0,0c0,0,0-0.1,0-0.1l0,0c0-0.1-0.1-0.1-0.1-0.2c0,0,0-0.1-0.1-0.1c0-0.1-0.1-0.1-0.1-0.2l0-0.1c0,0,0,0,0,0
	c-0.1-0.1-0.2-0.2-0.2-0.3c-0.1-0.1-0.1-0.2-0.2-0.2c-0.1-0.1-0.2-0.2-0.3-0.4l0,0l0,0c-0.1-0.1-0.2-0.2-0.3-0.3l-0.1-0.1
	c-0.1-0.1-0.2-0.2-0.3-0.3l0,0l0,0c-0.1-0.1-0.2-0.2-0.4-0.3l-1.1-0.8c-0.1,0.1-0.1,0.2-0.2,0.3l-2.7,3.1c-0.3,0.4-0.8,0.6-1.3,0.6
	c-0.4,0-0.7-0.1-1-0.3l-0.1-0.1l-0.3,0.3c0.1,0,0.2,0,0.2,0c0.4,0,0.7,0.1,1,0.3L167.3,79.7z M127.6,95.1
	C127.6,95.1,127.6,95.1,127.6,95.1c0,0.1,0,0.1,0,0.1c0,0,0,0,0,0c0,0,0,0,0,0c0,0,0,0.1,0,0.1c0,0,0,0,0,0l0,0l0,0c0,0,0,0.1,0,0.1
	c0,0,0,0,0,0l0,0c0,0,0,0,0,0.1c0,0,0,0,0,0l0,0c0,0,0,0,0,0c0,0,0,0,0,0l0,0c0,0,0.1,0.1,0.1,0.1h0l0,0c0,0,0,0,0,0
	c0,0,0.1,0.1,0.1,0.1l3.3,2.4c0.1,0,0.3,0,0.4-0.1c0,0,0-0.1,0-0.1c0,0,0,0,0,0c0-0.1,0.1-0.2,0.2-0.3l0,0c0,0,0,0,0-0.1
	c0.1-0.1,0.1-0.2,0.2-0.3c0.1-0.1,0.1-0.2,0.2-0.3c0,0,0,0,0-0.1c0.1-0.1,0.2-0.3,0.3-0.4c0,0,0.1-0.1,0.1-0.1l0,0
	c0.1-0.1,0.1-0.2,0.2-0.2l0.1-0.1l0,0c0.1-0.1,0.2-0.2,0.2-0.2c0,0,0.1-0.1,0.1-0.1l0,0c0.1-0.1,0.2-0.1,0.2-0.2
	c0.1,0,0.1-0.1,0.2-0.1c0.1-0.1,0.2-0.1,0.3-0.2l0,0c0,0,0.1-0.1,0.1-0.1c0.1-0.1,0.2-0.2,0.3-0.2l0,0c0,0,0.1-0.1,0.1-0.1
	c0.2-0.1,0.3-0.2,0.5-0.4c2.6-1.9,6.4-2.8,11.7-2.8c0.1,0,0.3,0,0.4,0c0.1,0,0.2-0.1,0.4-0.1c2.3-0.8,4.6-1.2,6.8-1.3
	c0.7,0,1.4,0.1,2,0.2c0.5-0.2,0.9-0.3,1.4-0.5c0.1-0.1,0.2-0.1,0.4-0.2c0,0,0,0,0,0l0.1,0c0.1-0.1,0.2-0.1,0.2-0.1
	c0,0,0.1-0.1,0.1-0.1c0.1,0,0.1-0.1,0.2-0.1l0,0c0,0,0.1-0.1,0.1-0.1c0.1,0,0.1-0.1,0.2-0.2l0.1-0.1c0,0,0,0,0,0
	c0.1-0.1,0.2-0.2,0.3-0.3c0,0,0,0,0,0c0.1-0.1,0.1-0.2,0.2-0.3c0,0,0,0,0,0c0,0,0,0,0-0.1l0.1-0.1c0,0,0-0.1,0.1-0.1c0,0,0,0,0,0
	l0,0l0-0.1l0,0l0,0c0,0,0,0,0,0c0.1-0.1,0.1-0.2,0.2-0.3l0,0l0,0c0.1-0.1,0.1-0.2,0.1-0.3c0,0,0,0,0,0c0-0.1,0.1-0.2,0.1-0.3
	c0,0,0-0.1,0-0.1l0,0c0.1-0.2,0.1-0.3,0.1-0.5c0,0,0,0,0,0c0-0.1,0.1-0.3,0.1-0.4l0,0l0-0.1c0-0.2,0.1-0.3,0.1-0.5l0,0l0,0l0-0.1
	c0,0,0-0.1,0-0.1c0-0.1,0-0.2,0-0.3v0l0,0l0,0c0-0.2,0-0.4,0-0.6l0-0.1l0,0c0-0.2,0-0.4,0-0.6c0-0.1,0-0.2,0-0.3v0c0,0,0,0,0,0
	c0-0.1,0-0.2,0-0.4l0,0l0-0.1c0-0.1,0-0.2,0-0.3c0,0,0-0.1,0-0.1l0,0c0-0.1,0-0.1,0-0.2c0,0,0-0.1,0-0.1c0-0.1,0-0.1,0-0.2
	c0,0,0,0,0-0.1c0,0,0,0,0,0v0c0-0.1,0-0.1,0-0.2c0,0,0,0,0,0l0,0l0,0c0-0.1,0-0.2-0.1-0.2c-0.2-0.7-0.5-1.3-0.7-1.8
	c0-0.1-0.1-0.2-0.1-0.2l-0.1-0.1c0,0,0,0,0,0l0-0.1l0,0c0,0,0,0,0,0l0,0l0-0.1l0,0c0,0,0-0.1,0-0.1c0,0,0,0,0-0.1l0,0l0,0l0,0
	c0,0,0,0,0,0l0,0l0,0c0,0,0,0,0-0.1c0,0,0,0,0-0.1l0,0l0,0c0,0,0,0,0,0l0,0l0,0l0,0c0,0,0,0,0-0.1c0,0,0,0,0,0c0,0,0,0,0,0
	c0,0,0,0,0,0c0,0,0,0,0,0c0,0,0,0,0-0.1c0,0,0-0.1,0-0.1c0-0.1-0.1-0.3-0.1-0.6c0-0.1,0-0.2,0-0.2c0-0.5,0.3-0.9,0.6-1.2
	c0-0.6-0.1-1.1-0.3-1.7l-2.9-2.2c0,0-0.1-0.1-0.1-0.1c-0.3-0.1-0.5-0.4-0.7-0.6c0,0.2-0.1,0.5-0.2,0.7l0,0l0,0l0,0l0.1,0.2
	c0.2,0.4,0.4,0.8,0.6,1.2c0,0,0,0,0,0c0.1,0.4,0.3,0.7,0.4,1.1c0,0.1,0.1,0.3,0.1,0.4c0,0,0,0.1,0,0.1l0,0c0,0.1,0,0.2,0.1,0.3
	c0,0,0,0.1,0,0.1l0,0c0,0.1,0,0.2,0,0.3c0,0.1,0,0.1,0,0.2c0,0.1,0,0.2,0,0.3l0,0c0,0,0,0.1,0,0.1c0,0.1,0,0.2,0,0.3l0,0
	c0,0,0,0.1,0,0.1c0,0.2,0,0.3,0,0.5c0,0.1,0,0.3,0,0.4c0,0.2,0,0.5,0,0.7v0c0,0,0,0.1,0,0.1c0,0.3,0,0.5,0,0.7c0,0,0,0.1,0,0.1l0,0
	c0,0.2,0,0.4-0.1,0.6l0,0c0,0,0,0.1,0,0.1c0,0.2-0.1,0.4-0.1,0.7c0,0,0,0.1,0,0.1v0c-0.1,0.2-0.1,0.4-0.2,0.6
	c-0.1,0.3-0.1,0.5-0.2,0.7v0c0,0.1,0,0.1-0.1,0.2l0,0c-0.1,0.2-0.1,0.3-0.2,0.5c-0.1,0.2-0.2,0.4-0.3,0.6l0,0c0,0,0,0.1,0,0.1
	c-0.1,0.2-0.2,0.4-0.3,0.5c0,0,0,0.1-0.1,0.1c-0.1,0.1-0.2,0.3-0.3,0.4l0,0c0,0-0.1,0.1-0.1,0.1c-0.1,0.2-0.3,0.3-0.4,0.5
	c0,0,0,0,0,0c0,0,0,0,0,0c-0.1,0.1-0.3,0.3-0.4,0.4c0,0-0.1,0.1-0.1,0.1l0,0c-0.1,0.1-0.2,0.2-0.3,0.3c-0.1,0-0.1,0.1-0.2,0.1
	c-0.1,0.1-0.2,0.2-0.3,0.2c-0.1,0-0.1,0.1-0.2,0.1c-0.1,0.1-0.2,0.1-0.4,0.2l0,0c0,0-0.1,0.1-0.1,0.1c-0.2,0.1-0.4,0.2-0.6,0.3
	c-3.1,1.4-7.1,2.1-12.4,2.1c-0.6,0-1.1,0-1.7,0c0,0,0,0-0.1,0c-0.4,0-0.7-0.1-1-0.3c-0.3,0.3-0.6,0.5-1,0.5c-2.6,0.3-4.6,1-6,1.9
	c-0.1,0.1-0.3,0.2-0.4,0.3c0,0,0,0-0.1,0l-0.1,0c-0.1,0.1-0.2,0.1-0.3,0.2c0,0-0.1,0-0.1,0.1l0,0c-0.1,0.1-0.1,0.1-0.2,0.2
	c0,0-0.1,0.1-0.1,0.1c-0.1,0.1-0.1,0.1-0.2,0.2c0,0-0.1,0.1-0.1,0.1c-0.1,0.1-0.1,0.1-0.2,0.2l0,0c0,0,0,0,0,0
	c-0.1,0.1-0.1,0.1-0.2,0.2c0,0,0,0,0,0.1l0,0c-0.1,0.1-0.1,0.1-0.2,0.2c0,0,0,0,0,0c-0.1,0.1-0.1,0.1-0.1,0.2c0,0,0,0,0,0
	c0,0,0,0.1-0.1,0.1l0,0l0,0c0,0-0.1,0.1-0.1,0.1c0,0,0,0,0,0c0,0,0,0,0,0c0,0,0,0,0,0.1c0,0,0,0,0,0c0,0,0,0,0,0c0,0,0,0.1,0,0.1
	c0,0,0,0,0,0c0,0,0,0,0,0v0l0,0c0,0,0,0,0,0c0,0,0,0,0,0c0,0,0,0,0,0c0,0,0,0,0,0c0,0,0,0,0,0C127.6,95,127.6,95,127.6,95.1
	L127.6,95.1L127.6,95.1z M380.3,42.9L380.3,42.9C380.3,43,380.3,43,380.3,42.9c0.3,0.8,0.6,1.5,1,2.1c0.1,0.2,0.1,0.4,0.2,0.6
	c0,0.3,0.1,0.6,0.1,0.8c0,0,0,0.1,0,0.1c0,0,0,0,0,0v0v0v0v0l0,0.1v0v0l0,0.1v0v0v0c0,0,0,0,0,0v0v0v0c0,0,0,0.1,0,0.1v0v0.1v0v0
	l0,0.1v0v0v0.2v0v0.1v0.2c0,0.3-0.1,0.5-0.2,0.8l3.9,2.9c-1-2.1-1.9-4.5-2.7-7.1c-0.9-3.2-1.4-4.5-1.7-5c0,0,0,0,0-0.1l0,0l0,0l0,0
	c0,0,0-0.1-0.1-0.1l0,0l0,0c0,0,0,0,0,0c0,0-0.1-0.1-0.1-0.1l0,0c0,0,0,0,0,0c0,0-0.1-0.1-0.1-0.1l0,0l0,0c0-0.1-0.1-0.1-0.1-0.1
	l0,0l0,0c-0.1-0.1-0.1-0.1-0.2-0.2v0l0,0v0v0c-0.1-0.1-0.1-0.1-0.2-0.2l0,0l0,0c-0.1-0.1-0.1-0.1-0.2-0.2l-1.2-0.9
	c0.1,0.3,0.2,0.6,0.3,1C379.1,39.8,379.6,41.5,380.3,42.9 M132.2,78L132.2,78L132.2,78z M132.1,78L132.1,78L132.1,78
	C132.2,78,132.1,78,132.1,78 M132.4,81.7C132.4,81.7,132.4,81.7,132.4,81.7L132.4,81.7C132.4,81.7,132.4,81.7,132.4,81.7"/>
<g>
</g>
<g>
</g>
<g>
</g>
<g>
</g>
<g>
</g>
<g>
</g>
<g>
</g>
<g>
</g>
<g>
</g>
<g>
</g>
<g>
</g>
<g>
</g>
<g>
</g>
<g>
</g>
<g>
</g>
</svg>
